<?xml version="1.0" encoding="UTF-8" standalone="no"?>
<!-- Created with Inkscape (http://www.inkscape.org/) -->

<svg
   version="1.1"
   id="svg2"
   width="1068.3467"
   height="1156.9333"
   viewBox="0 0 1068.3467 1156.9333"
   sodipodi:docname="shutterstock_586379021.eps"
   xmlns:inkscape="http://www.inkscape.org/namespaces/inkscape"
   xmlns:sodipodi="http://sodipodi.sourceforge.net/DTD/sodipodi-0.dtd"
   xmlns="http://www.w3.org/2000/svg"
   xmlns:svg="http://www.w3.org/2000/svg">
  <defs
     id="defs6" />
  <sodipodi:namedview
     id="namedview4"
     pagecolor="#ffffff"
     bordercolor="#000000"
     borderopacity="0.25"
     inkscape:showpageshadow="2"
     inkscape:pageopacity="0.0"
     inkscape:pagecheckerboard="0"
     inkscape:deskcolor="#d1d1d1" />
  <g
     id="g8"
     inkscape:groupmode="layer"
     inkscape:label="ink_ext_XXXXXX"
     transform="matrix(1.3333333,0,0,-1.3333333,0,1156.9333)">
    <g
       id="g10"
       transform="scale(0.1)">
      <path
         d="m 6269.04,5139.83 c 79.55,-26.15 157.82,32.04 189.5,124 31.69,91.97 -13.01,187.87 -57.52,268.93 0.02,0.05 -168.3,-83.74 -204.11,-174.25 -34.2,-86.52 -22.91,-175.78 72.13,-218.68"
         style="fill:#b8d77e;fill-opacity:1;fill-rule:nonzero;stroke:none"
         id="path12" />
      <path
         d="m 7085.19,6077.33 c 54.35,65.27 28.67,160.81 -46.27,224.99 -74.89,64.18 -182.01,57.8 -275.07,46.06 -0.04,0.04 16.19,-189.97 88.19,-257.52 68.86,-64.52 157.26,-87.16 233.15,-13.53"
         style="fill:#b8d77e;fill-opacity:1;fill-rule:nonzero;stroke:none"
         id="path14" />
      <path
         d="m 2696.98,7628.77 c 49.47,59.43 26.08,146.41 -42.13,204.84 -68.2,58.45 -165.72,52.64 -250.44,41.94 -0.03,0.02 14.76,-172.96 80.29,-234.45 62.69,-58.75 143.17,-79.35 212.28,-12.33"
         style="fill:#b8d77e;fill-opacity:1;fill-rule:nonzero;stroke:none"
         id="path16" />
      <path
         d="m 2530.09,3728.83 c 89.19,10.31 139.22,102.1 128.7,205.85 -10.48,103.72 -97.08,176.96 -176.83,235.83 0,0.04 -126.15,-157.15 -120.32,-261.3 5.58,-99.57 56.7,-181.37 168.45,-180.38"
         style="fill:#b8d77e;fill-opacity:1;fill-rule:nonzero;stroke:none"
         id="path18" />
      <path
         d="m 2499.13,4961.44 c 89.18,10.31 139.21,102.11 128.71,205.84 -10.52,103.73 -97.11,176.97 -176.87,235.84 0,0.06 -126.14,-157.15 -120.31,-261.29 5.59,-99.59 56.71,-181.36 168.47,-180.39"
         style="fill:#b8d77e;fill-opacity:1;fill-rule:nonzero;stroke:none"
         id="path20" />
      <path
         d="m 972.398,5335.25 c -14.335,88.63 -108.32,134.43 -211.48,119.26 -103.145,-15.22 -172.379,-105.04 -227.578,-187.37 -0.039,0 162.73,-118.89 266.515,-108.34 99.2,10.1 178.583,64.86 172.543,176.45"
         style="fill:#b8d77e;fill-opacity:1;fill-rule:nonzero;stroke:none"
         id="path22" />
      <path
         d="m 6306.15,4117.74 c 86.08,-84.14 223.96,-58.67 323.07,39.92 99.14,98.6 102.21,250.63 96.13,383.42 0.04,0.03 -270.22,-1.45 -373.74,-95.53 -98.93,-89.97 -140.89,-212.3 -45.46,-327.81"
         style="fill:#b8d77e;fill-opacity:1;fill-rule:nonzero;stroke:none"
         id="path24" />
      <path
         d="m 1903.99,3446.5 c -0.27,89.78 -85.94,149.73 -190.21,150.85 -104.25,1.13 -186.68,-76.75 -254.08,-149.45 -0.04,0 142.1,-142.87 246.26,-148.69 99.57,-5.55 186.55,36.13 198.03,147.29"
         style="fill:#b8d77e;fill-opacity:1;fill-rule:nonzero;stroke:none"
         id="path26" />
      <path
         d="m 864.285,4348.38 c 20.766,87.33 -48.441,165.7 -149.523,191.27 -101.078,25.53 -199.473,-30.84 -282.059,-85.72 -0.035,0.03 104.637,-172.2 204.52,-202.3 95.492,-28.74 189.828,-8.63 227.062,96.75"
         style="fill:#b8d77e;fill-opacity:1;fill-rule:nonzero;stroke:none"
         id="path28" />
      <path
         d="m 3696.02,7543.42 c 89.55,-6.1 155.48,75.05 164.04,178.98 8.6,103.91 -63.22,191.68 -130.91,264.09 0,0.06 -152.66,-131.53 -165.9,-234.99 -12.66,-98.92 22.7,-188.65 132.77,-208.08"
         style="fill:#b8d77e;fill-opacity:1;fill-rule:nonzero;stroke:none"
         id="path30" />
      <path
         d="m 5229.84,7483.16 c 39.19,-80.77 142.37,-97.66 236.82,-53.5 94.44,44.17 134.97,150.09 164.19,244.81 0.05,0.02 -189.98,67.19 -286.37,27.27 -92.13,-38.14 -152.45,-113.42 -114.64,-218.58"
         style="fill:#b8d77e;fill-opacity:1;fill-rule:nonzero;stroke:none"
         id="path32" />
      <path
         d="m 3569.89,3631.33 c 76.27,-15.27 141.96,47.09 160.94,135.41 18.98,88.29 -32.91,171.7 -82.97,241.49 0.02,0.04 -145.84,-95.93 -168.77,-183.35 -21.91,-83.56 -1.56,-164.59 90.8,-193.55"
         style="fill:#b8d77e;fill-opacity:1;fill-rule:nonzero;stroke:none"
         id="path34" />
      <path
         d="m 2054.03,3953.85 c 13.39,76.61 -50.52,140.77 -139.28,157.57 -88.73,16.84 -170.86,-37.07 -239.4,-88.81 -0.04,0 99.45,-143.46 187.4,-164.26 84.07,-19.87 164.6,2.45 191.28,95.5"
         style="fill:#b8d77e;fill-opacity:1;fill-rule:nonzero;stroke:none"
         id="path36" />
      <path
         d="m 599.887,6439.52 c 124.414,49.67 159.39,200.97 102.269,345.76 -57.078,144.76 -211.558,216.01 -350.371,269.31 -0.015,0.07 -118.312,-274.85 -67.769,-422.05 48.347,-140.72 155.148,-238.1 315.871,-193.02"
         style="fill:#b8d77e;fill-opacity:1;fill-rule:nonzero;stroke:none"
         id="path38" />
      <path
         d="m 1585.19,5957.45 c 93.86,68.39 91.76,203.6 13.88,313.76 -77.84,110.12 -221.99,137.46 -349.28,152.98 -0.03,0.06 -42.02,-257.26 30.85,-370.84 69.7,-108.57 179.33,-168.13 304.55,-95.9"
         style="fill:#b8d77e;fill-opacity:1;fill-rule:nonzero;stroke:none"
         id="path40" />
      <path
         d="m 2914.17,4607.04 c 96.96,39.39 124.54,158.1 80.37,271.37 -44.11,113.23 -164.2,168.5 -272.15,209.77 0,0.06 -92.7,-215.84 -53.69,-331.02 37.33,-110.11 120.25,-186.04 245.47,-150.12"
         style="fill:#b8d77e;fill-opacity:1;fill-rule:nonzero;stroke:none"
         id="path42" />
      <path
         d="m 3469.71,4866.14 c 100.29,-29.84 196,45.62 232.29,161.63 36.33,116 -22.91,234.19 -81.4,333.86 0.02,0.05 -207.26,-110.61 -248.74,-224.9 -39.67,-109.29 -22.38,-220.4 97.85,-270.59"
         style="fill:#b8d77e;fill-opacity:1;fill-rule:nonzero;stroke:none"
         id="path44" />
      <path
         d="m 5789.37,7123.05 c 77.63,27.32 103.7,119.54 73.22,210.14 -30.44,90.6 -122.73,138.47 -205.95,174.89 -0.02,0.05 -80.85,-166.1 -54.5,-258.01 25.24,-87.86 87.55,-150.58 187.23,-127.02"
         style="fill:#b8d77e;fill-opacity:1;fill-rule:nonzero;stroke:none"
         id="path46" />
      <path
         d="m 4546.61,8173.04 c 75.04,-72.95 194.82,-50.47 280.77,35.5 85.95,85.92 88.3,218.11 82.69,333.53 0.03,0.03 -234.9,-1.89 -324.69,-83.91 -85.81,-78.43 -122.01,-184.88 -38.77,-285.12"
         style="fill:#b8d77e;fill-opacity:1;fill-rule:nonzero;stroke:none"
         id="path48" />
      <path
         d="m 5168.57,5680.21 c 74.86,-49.58 172.26,-11.61 231.06,74.52 58.81,86.08 39.76,197.88 16.71,294.3 0.02,0.04 -197.73,-38.92 -260.39,-122.32 -59.86,-79.77 -73.46,-175.25 12.62,-246.5"
         style="fill:#b8d77e;fill-opacity:1;fill-rule:nonzero;stroke:none"
         id="path50" />
      <path
         d="m 5137.67,3712.77 c 42.89,-45.96 115.39,-36.02 169.49,13.02 54.05,48.99 59.36,128.2 59.39,197.6 0.02,0.03 -140.94,5.79 -197.21,-40.78 -53.79,-44.49 -78.62,-107.28 -31.67,-169.84"
         style="fill:#b8d77e;fill-opacity:1;fill-rule:nonzero;stroke:none"
         id="path52" />
      <path
         d="m 4103.28,3730.82 c 54.34,-16.01 106.05,24.96 125.56,87.81 19.5,62.83 -12.71,126.76 -44.5,180.63 0,0.03 -112.05,-60.14 -134.38,-122.08 -21.32,-59.21 -11.82,-119.33 53.32,-146.36"
         style="fill:#b8d77e;fill-opacity:1;fill-rule:nonzero;stroke:none"
         id="path54" />
      <path
         d="m 6312.53,4935.97 c 33.96,-70 123.34,-84.64 205.18,-46.37 81.84,38.26 116.93,130.04 142.27,212.1 0.03,0.02 -164.6,58.2 -248.13,23.63 -79.81,-33.07 -132.08,-98.26 -99.32,-189.36"
         style="fill:#b8d77e;fill-opacity:1;fill-rule:nonzero;stroke:none"
         id="path56" />
      <path
         d="m 7018.44,5475.86 c 74.04,23.89 100.96,110.37 74.43,196.74 -26.52,86.35 -112.5,133.88 -190.27,170.37 -0.01,0.03 -80.51,-154.92 -57.9,-242.44 21.66,-83.63 78.97,-144.44 173.74,-124.67"
         style="fill:#b8d77e;fill-opacity:1;fill-rule:nonzero;stroke:none"
         id="path58" />
      <path
         d="m 4580.36,4813.93 c 55.83,54.17 41.74,143.65 -20.25,209.39 -61.95,65.71 -160.11,70.31 -245.98,68.66 -0.02,0.03 -3.71,-174.55 55.28,-243.03 56.4,-65.46 134.69,-94.68 210.95,-35.02"
         style="fill:#b8d77e;fill-opacity:1;fill-rule:nonzero;stroke:none"
         id="path60" />
      <path
         d="m 5888.02,3960.77 c 70.07,-33.78 149.23,10.24 189.61,91.07 40.35,80.83 10.88,174.55 -20.22,254.61 0.02,0.02 -165.17,-56.61 -209.16,-135.57 -42.02,-75.49 -42.49,-159.08 39.77,-210.11"
         style="fill:#b8d77e;fill-opacity:1;fill-rule:nonzero;stroke:none"
         id="path62" />
      <path
         d="m 6103.81,7504.59 c 67.16,40.5 73.68,131.58 27.76,210.24 -45.9,78.65 -141.24,105.49 -225.95,123.42 -0.02,0.04 -43.37,-170.6 -1.01,-251.26 40.5,-77.12 110.74,-123.62 199.2,-82.4"
         style="fill:#b8d77e;fill-opacity:1;fill-rule:nonzero;stroke:none"
         id="path64" />
      <path
         d="m 5060.97,7772.12 c 59,3.61 95.13,62.22 91.89,130.8 -3.25,68.56 -57.59,119.76 -107.93,161.28 0,0.03 -88.49,-98.84 -88.34,-167.53 0.16,-65.67 30.88,-121.24 104.38,-124.55"
         style="fill:#b8d77e;fill-opacity:1;fill-rule:nonzero;stroke:none"
         id="path66" />
      <path
         d="m 1641.53,6394.66 c 73.9,4.55 119.17,77.93 115.1,163.83 -4.06,85.88 -72.12,150 -135.19,202.03 0,0.04 -110.83,-123.83 -110.65,-209.85 0.2,-82.25 38.69,-151.86 130.74,-156.01"
         style="fill:#b8d77e;fill-opacity:1;fill-rule:nonzero;stroke:none"
         id="path68" />
      <path
         d="m 6361.88,7641.17 c 27.9,-57.49 101.33,-69.53 168.56,-38.08 67.23,31.43 96.08,106.82 116.89,174.25 0.03,0.01 -135.25,47.82 -203.85,19.41 -65.57,-27.16 -108.52,-80.74 -81.6,-155.58"
         style="fill:#b8d77e;fill-opacity:1;fill-rule:nonzero;stroke:none"
         id="path70" />
      <path
         d="m 4894.35,7393.55 c 87.32,20.85 126.09,117.93 103.31,219.7 -22.73,101.74 -117.42,164.16 -203.61,213.13 -0.01,0.05 -106.57,-171.03 -88.41,-273.73 17.39,-98.21 77.88,-173.34 188.71,-159.1"
         style="fill:#b8d77e;fill-opacity:1;fill-rule:nonzero;stroke:none"
         id="path72" />
      <path
         d="m 3056.65,5852.14 c 89.74,1.8 148.27,88.43 147.65,192.7 -0.58,104.27 -79.84,185.39 -153.65,251.56 0,0.06 -140.49,-144.45 -144.57,-248.68 -3.89,-99.66 39.24,-185.93 150.57,-195.58"
         style="fill:#b8d77e;fill-opacity:1;fill-rule:nonzero;stroke:none"
         id="path74" />
      <path
         d="m 4620.28,6861.83 c 86.91,-22.57 166.68,44.98 194.33,145.54 27.66,100.53 -26.68,200.07 -79.8,283.76 0.02,0.05 -174.36,-101.03 -206.51,-200.26 -30.73,-94.89 -12.58,-189.62 91.98,-229.04"
         style="fill:#b8d77e;fill-opacity:1;fill-rule:nonzero;stroke:none"
         id="path76" />
      <path
         d="m 4413.99,7347.81 c 82.74,-34.84 171.42,20.55 213.22,116.06 41.84,95.52 2.37,201.82 -38.15,292.31 0.02,0.04 -187.08,-74.91 -233.17,-168.49 -44.06,-89.48 -39.71,-185.82 58.1,-239.88"
         style="fill:#b8d77e;fill-opacity:1;fill-rule:nonzero;stroke:none"
         id="path78" />
      <path
         d="m 6464.21,7035.22 c 89.75,2.2 147.91,89.09 146.85,193.36 -1.06,104.25 -80.66,185.03 -154.76,250.88 0.01,0.06 -139.85,-145.05 -143.5,-249.32 -3.46,-99.65 40.05,-185.74 151.41,-194.92"
         style="fill:#b8d77e;fill-opacity:1;fill-rule:nonzero;stroke:none"
         id="path80" />
      <path
         d="m 2721.68,6276.13 c 96.96,39.38 124.56,158.1 80.39,271.34 -44.13,113.27 -164.22,168.53 -272.15,209.8 -0.02,0.07 -92.72,-215.86 -53.7,-331.02 37.31,-110.12 120.24,-186.05 245.46,-150.12"
         style="fill:#b8d77e;fill-opacity:1;fill-rule:nonzero;stroke:none"
         id="path82" />
      <path
         d="m 3187.41,7157.8 c 103.22,-17.24 188.88,69.45 210.59,189.06 21.73,119.56 -51.64,229.55 -121.95,321.25 0.01,0.05 -192.04,-135.31 -219.14,-253.86 -25.86,-113.36 5.01,-221.48 130.5,-256.45"
         style="fill:#b8d77e;fill-opacity:1;fill-rule:nonzero;stroke:none"
         id="path84" />
      <path
         d="m 1104.08,6576.79 c 62.8,-83.71 184.63,-80.07 282.88,-8.5 98.25,71.55 121.04,201.78 133.44,316.66 0.02,0.04 -232.37,34.61 -333.79,-32.5 -96.94,-64.19 -149.21,-163.73 -82.53,-275.66"
         style="fill:#b8d77e;fill-opacity:1;fill-rule:nonzero;stroke:none"
         id="path86" />
      <path
         d="m 2037.48,4221.09 c 113.48,46.08 145.74,185.04 94.07,317.6 -51.64,132.55 -192.22,197.23 -318.54,245.54 -0.03,0.07 -108.52,-252.65 -62.85,-387.45 43.69,-128.87 140.74,-217.77 287.32,-175.69"
         style="fill:#b8d77e;fill-opacity:1;fill-rule:nonzero;stroke:none"
         id="path88" />
      <path
         d="m 757.367,4608.88 c 78.524,34.52 102.699,133.93 69.188,227.57 -33.469,93.64 -128.957,137.65 -214.907,170.21 -0.015,0.04 -78.148,-181.54 -48.789,-276.87 28.079,-91.12 93.336,-153 194.508,-120.91"
         style="fill:#b8d77e;fill-opacity:1;fill-rule:nonzero;stroke:none"
         id="path90" />
      <path
         d="m 7199.24,6527.87 c 99.51,-32.36 197.1,40.65 236.3,155.72 39.25,115.03 -16.99,234.68 -72.93,335.78 0.02,0.06 -209.99,-105.31 -254.37,-218.54 -42.4,-108.24 -27.92,-219.74 91,-272.96"
         style="fill:#b8d77e;fill-opacity:1;fill-rule:nonzero;stroke:none"
         id="path92" />
      <path
         d="m 5818.86,4760.49 c 115.99,19.6 175.14,143.18 154.26,278.22 -20.84,135.03 -139.2,224.92 -247.62,296.49 0,0.07 -154.28,-214.3 -139.5,-350.21 14.17,-129.92 86.68,-233.44 232.86,-224.5"
         style="fill:#b8d77e;fill-opacity:1;fill-rule:nonzero;stroke:none"
         id="path94" />
      <path
         d="m 4035.3,5406.09 c 96.95,39.38 124.54,158.08 80.38,271.33 -44.12,113.25 -164.23,168.51 -272.16,209.78 -0.02,0.07 -92.71,-215.84 -53.7,-331.01 37.33,-110.1 120.25,-186.04 245.48,-150.1"
         style="fill:#b8d77e;fill-opacity:1;fill-rule:nonzero;stroke:none"
         id="path96" />
      <path
         d="m 2065.02,6441.72 c 61.98,-28.98 131.14,10.57 165.82,82.08 34.68,71.5 7.78,153.67 -20.41,223.74 0.01,0.04 -144.7,-51.5 -182.57,-121.41 -36.19,-66.85 -35.74,-140.34 37.16,-184.41"
         style="fill:#b8d77e;fill-opacity:1;fill-rule:nonzero;stroke:none"
         id="path98" />
      <path
         d="m 1326.45,4390.05 c 99.44,24.93 141.47,136.11 112.97,251.76 -28.48,115.67 -138.37,185.52 -238.17,240.19 -0.02,0.04 -117.9,-196.36 -94.64,-313.19 22.27,-111.68 93.3,-196.5 219.84,-178.76"
         style="fill:#b8d77e;fill-opacity:1;fill-rule:nonzero;stroke:none"
         id="path100" />
      <path
         d="m 2801.88,7879.66 c 124.41,49.64 159.39,200.95 102.27,345.75 -57.08,144.75 -211.57,215.99 -350.38,269.29 -0.02,0.09 -118.32,-274.83 -67.77,-422.04 48.36,-140.7 155.16,-238.1 315.88,-193"
         style="fill:#b8d77e;fill-opacity:1;fill-rule:nonzero;stroke:none"
         id="path102" />
      <path
         d="m 4100.23,7933.19 c 133.57,10.05 212.34,143.87 201.28,299.13 -11.02,155.23 -137,269.52 -253.41,362.03 -0.02,0.07 -195.34,-226.69 -191.28,-382.29 3.91,-148.73 76.56,-273.68 243.41,-278.87"
         style="fill:#b8d77e;fill-opacity:1;fill-rule:nonzero;stroke:none"
         id="path104" />
      <path
         d="m 6265.44,7780.86 c 119.1,21.77 177.14,149.54 152.44,288 -24.7,138.47 -148.8,229.21 -262.23,301.27 -0.01,0.05 -153.98,-222.33 -135.52,-361.77 17.68,-133.31 94.87,-238.68 245.31,-227.5"
         style="fill:#b8d77e;fill-opacity:1;fill-rule:nonzero;stroke:none"
         id="path106" />
      <path
         d="m 1777.13,7504.51 c 125.97,45.56 165.89,195.63 113.56,342.2 -52.3,146.56 -204.36,222.84 -341.31,280.69 -0.04,0.08 -127.31,-270.82 -81.63,-419.6 43.72,-142.22 147.24,-243.07 309.38,-203.29"
         style="fill:#b8d77e;fill-opacity:1;fill-rule:nonzero;stroke:none"
         id="path108" />
      <path
         d="m 4148.19,6896.54 c 111.47,78.81 108.17,235.75 14.68,364 -93.44,128.28 -265.42,160.85 -417.24,179.62 -0.04,0.05 -48.59,-298.33 38.95,-430.57 83.71,-126.4 214.74,-196.16 363.61,-113.05"
         style="fill:#b8d77e;fill-opacity:1;fill-rule:nonzero;stroke:none"
         id="path110" />
      <path
         d="m 6268.43,6551.48 c 15.91,-115.03 136.09,-177.07 269.94,-160.48 133.86,16.55 226.07,130.67 299.91,235.5 0.06,0 -206.89,158.61 -341.42,148.06 -128.62,-10.11 -232.91,-78.57 -228.43,-223.08"
         style="fill:#b8d77e;fill-opacity:1;fill-rule:nonzero;stroke:none"
         id="path112" />
      <path
         d="m 4675.33,5001.72 c 113.93,-22.36 211.67,71.15 239.47,203.12 27.85,131.97 -50.11,256.27 -125.26,360.17 0.03,0.06 -217.24,-144.11 -250.98,-274.78 -32.23,-124.92 -1.37,-245.8 136.77,-288.51"
         style="fill:#b8d77e;fill-opacity:1;fill-rule:nonzero;stroke:none"
         id="path114" />
      <path
         d="m 3689.24,6336.71 c 69.05,-93.33 204.27,-90.27 313.83,-11.6 109.58,78.63 135.89,222.97 150.52,350.37 0.04,0.02 -257.59,40.17 -370.63,-33.52 -108.07,-70.47 -166.84,-180.52 -93.72,-305.25"
         style="fill:#b8d77e;fill-opacity:1;fill-rule:nonzero;stroke:none"
         id="path116" />
      <path
         d="m 7080.35,4871.65 c -20.05,-98.5 60.26,-183.68 174.35,-208.6 114.05,-24.93 222.15,41.78 312.56,106.18 0.04,-0.01 -123.39,188.94 -236.26,218.98 -107.95,28.69 -212.8,2.74 -250.65,-116.56"
         style="fill:#b8d77e;fill-opacity:1;fill-rule:nonzero;stroke:none"
         id="path118" />
      <path
         d="m 7533.61,6171.17 c 104.34,-94.87 264.67,-59.2 376.55,60.45 111.9,119.59 109.07,297.73 96.35,452.93 0.04,0.03 -316.31,-13.1 -433.53,-127.63 -112.05,-109.54 -155.99,-254.51 -39.37,-385.75"
         style="fill:#b8d77e;fill-opacity:1;fill-rule:nonzero;stroke:none"
         id="path120" />
      <path
         d="m 4337.53,7783.04 c 2.31,9.03 4.55,17.92 6.87,26.64 2.83,8.59 5.68,17.01 8.51,25.3 5.6,16.55 11.01,32.54 16.27,48.14 5.83,15.36 12.49,29.9 18.31,44.31 6.29,14.32 11.53,28.59 18.34,41.99 6.71,13.34 13.32,26.42 20,39.38 12.46,26.22 27.56,50.4 42.33,74.8 60.34,96.92 132.16,190.65 258.5,311.69 -128.84,-118.76 -204.24,-210.25 -269.31,-305.81 -15.99,-24.02 -32.3,-47.91 -46.12,-73.9 -7.28,-12.87 -14.59,-25.82 -22.13,-39.12 -7.36,-13.3 -13.35,-27.57 -20.34,-41.85 -6.65,-14.36 -14.09,-28.95 -20.68,-44.35 -6,-15.64 -12.07,-31.77 -18.47,-48.38 -3.23,-8.36 -6.46,-16.87 -9.83,-25.46 -2.55,-8.84 -5.34,-17.85 -8.07,-27 -5.33,-18.38 -10.97,-37.41 -16.77,-57.19 -38.85,-155.99 -38.39,-318.35 -21.59,-436.84 9.46,-59.26 18.05,-108.43 28.05,-142.15 9.02,-33.93 15.54,-52.95 18.3,-52.43 2.85,0.52 1.79,20.56 -2.56,54.96 -5.27,34.29 -9.83,83.49 -16.2,142.22 -10.81,117.48 -9.87,275.14 22.24,428.52 4.99,19.56 9.74,38.34 14.35,56.53"
         style="fill:#617831;fill-opacity:1;fill-rule:evenodd;stroke:none"
         id="path122" />
      <path
         d="m 5451.48,3645.77 c 104.4,39.73 242.96,95.02 376.23,160.62 137.01,67.91 227.81,119.81 316.06,176.69 44.05,28.55 87.45,58.54 133.71,94.94 11.43,9.24 23.22,18.67 35.35,28.35 12.08,9.78 23.44,21.02 35.94,31.98 25.38,21.5 48.66,48.11 75.24,75.7 -27.65,-26.71 -51.99,-52.25 -78.47,-72.57 -12.89,-10.39 -24.68,-21.01 -37.39,-30.17 -12.55,-8.99 -24.82,-17.79 -36.73,-26.35 -48,-33.65 -93.22,-60.53 -139.01,-85.63 -91.78,-50.08 -185.77,-94 -326.07,-152.85 -136.25,-56.82 -273.35,-113.95 -374.23,-162.07 -100.97,-47.74 -164.93,-86.4 -160.67,-94.24 4.46,-8.08 75.44,16.15 180.04,55.6"
         style="fill:#617831;fill-opacity:1;fill-rule:evenodd;stroke:none"
         id="path124" />
      <path
         d="m 7177.85,5655.44 c -6.31,-32.82 -12.39,-64.37 -18.22,-94.37 -2.88,-14.62 -5.13,-28.75 -7.99,-42.05 -3.66,-12.77 -7.06,-25.19 -10.43,-37.32 -5.75,-21.62 -10.93,-41.98 -16,-61.1 -8.51,-34 -12.21,-53.86 -9.91,-54.57 2.25,-0.66 10.38,17.92 22.77,51.08 6.59,18.82 13.74,38.86 21.27,60.19 4.07,12.02 8.37,24.45 12.69,37.19 3.69,13.29 6.67,27.48 10.2,42.2 6.63,29.47 14.29,61.39 21.36,95.31 3.92,34.85 8.08,70.97 12.37,108.23 0.78,37.72 1.71,76.88 -0.28,116.39 -3.71,39.43 -6.64,79.61 -14.43,118.95 -13.49,81.45 -29.92,148.18 -32.68,210.43 -1.1,15.52 -2.17,30.62 -3.31,45.49 -1.32,14.85 0.08,29.43 0.08,43.8 0.2,14.46 0.58,28.62 0.85,42.77 0.94,14.11 3.06,28.07 4.6,42.02 1.86,13.96 2.71,28.15 5.52,42.17 2.93,14.01 6.02,28.1 9.08,42.37 1.49,7.18 3.01,14.41 4.61,21.67 2.23,7.22 4.39,14.45 6.52,21.75 4.39,14.69 8.98,29.67 13.53,45.04 21.2,60.8 48.6,127.16 82.3,205.98 -35.01,-78.33 -63.87,-144.14 -86.85,-204.67 -5.06,-15.22 -10.04,-30.22 -14.88,-44.83 -2.47,-7.32 -4.78,-14.49 -7.23,-21.67 -1.76,-7.32 -3.63,-14.56 -5.38,-21.68 -3.61,-14.37 -7.02,-28.47 -10.46,-42.56 -3.44,-13.99 -4.81,-28.27 -7.14,-42.33 -2.06,-14.13 -4.73,-28.14 -6.22,-42.43 -0.76,-14.27 -1.62,-28.62 -2.38,-43.22 -0.56,-14.57 -2.51,-29.36 -1.83,-44.39 0.59,-15.12 1.19,-30.43 1.75,-46.17 0.53,-63.21 14.84,-132.01 25.64,-212.64 6.48,-39.19 8.47,-78.51 11.62,-117.12 1.42,-38.69 0.29,-76.88 -0.28,-113.74 -3.76,-36.53 -7.34,-72.03 -10.86,-106.17"
         style="fill:#617831;fill-opacity:1;fill-rule:evenodd;stroke:none"
         id="path126" />
      <path
         d="m 623.754,5631.51 c 10.578,-7.04 20.773,-13.92 30.773,-20.59 10.09,-6.54 19.461,-13.5 29.457,-19.19 9.957,-5.57 19.731,-11.11 29.391,-16.6 19.07,-11.27 38.227,-20.96 57.664,-30.13 77.012,-37.66 156.582,-68.89 273.641,-111 113.79,-40.66 228.24,-79.04 308.53,-117.8 20.18,-9.6 38.73,-18.15 53.88,-27.61 15.57,-9.14 30.17,-15.92 40.04,-23.85 21.11,-14.58 34.26,-22.36 36,-20.78 1.79,1.58 -8.26,12.42 -27.48,30.35 -9.17,9.65 -22.99,17.97 -38.05,28.68 -14.89,11.11 -33.2,21.05 -53.4,31.9 -80.38,43.86 -196.04,83.78 -311.13,120.03 -118.597,37.66 -198.976,64.67 -277.363,98.71 -19.73,8.28 -39.184,17.09 -58.535,27.58 -9.785,5.03 -19.832,10.13 -29.969,15.35 -10.156,5.27 -19.609,11.89 -29.898,18.05 -10.196,6.33 -20.59,12.83 -31.36,19.47 -10,7.75 -20.32,15.67 -30.894,23.87 -22.508,15.38 -40.91,37.37 -63.512,58.9 22.024,-21.98 39.856,-44.52 61.977,-60.5 10.375,-8.54 20.492,-16.82 30.238,-24.84"
         style="fill:#617831;fill-opacity:1;fill-rule:evenodd;stroke:none"
         id="path128" />
      <path
         d="m 6156.99,7287.06 c 9.26,0.76 6.45,87.14 -23.83,168.06 -15.37,41.49 -29.15,68.76 -44.52,95.46 -15.31,26.7 -33.01,52.83 -64.37,86.87 29.18,-35.87 43.57,-63.12 54.81,-90.93 11.43,-27.69 20.6,-55.76 30.8,-97.49 20.01,-80.65 37.02,-162.94 47.11,-161.97"
         style="fill:#617831;fill-opacity:1;fill-rule:evenodd;stroke:none"
         id="path130" />
      <path
         d="m 6230.93,7467.78 c 16.68,31.81 37.09,74.77 63.65,114.6 26.16,41.68 48.85,67.53 72.99,92.61 11.54,13.1 26.18,23.33 41.17,36.58 15.01,13.09 34.88,23.8 56.94,38.77 -22.66,-14.02 -43.3,-23.83 -59.25,-36.02 -15.9,-12.29 -31.75,-21.62 -44.55,-33.9 -26.87,-23.39 -52.92,-47.7 -83.31,-88.68 -30.81,-39.27 -51.33,-84.31 -64.69,-118.02 -12.07,-34.32 -16.95,-57.86 -13.38,-58.8 3.77,-1.06 15.06,20.55 30.43,52.86"
         style="fill:#617831;fill-opacity:1;fill-rule:evenodd;stroke:none"
         id="path132" />
      <path
         d="m 5122.87,7668.41 c 3.59,1.63 0.66,14.68 -5.28,32.95 -8.48,29.33 -10.33,35.5 -19.77,67.62 -14.85,51.16 -19.18,70.8 -29.76,125.17 5.96,-55.08 3.7,-74.84 10.87,-128.72 3.29,-26.24 12.44,-51.84 21.49,-70.06 9.91,-17.94 19.12,-28.56 22.45,-26.96"
         style="fill:#617831;fill-opacity:1;fill-rule:evenodd;stroke:none"
         id="path134" />
      <path
         d="m 5176.01,7456.94 c 34.98,25.51 60,41.68 86.3,56.73 26.2,15.16 54.13,28.77 98.21,42.87 -44.82,-11.49 -74.68,-22.24 -103.14,-34.32 -28.6,-11.98 -56.56,-24.79 -95.2,-47.04 -76.07,-42.73 -135.09,-106.12 -128.02,-112.07 7.13,-6.34 73.68,44.98 141.85,93.83"
         style="fill:#617831;fill-opacity:1;fill-rule:evenodd;stroke:none"
         id="path136" />
      <path
         d="m 4939.51,7254.02 c 9.24,-22.75 20.21,-43.34 30.12,-60.71 19.74,-34.81 38.51,-55.25 42.04,-53.13 4.73,2.64 -6.25,26.34 -21.15,62.02 -7.44,17.99 -16.68,38.52 -25.6,61.08 -8.6,20.38 -17.29,41.14 -29.29,69.98 -20.6,49.12 -33.57,83.22 -45.1,118.19 -11.66,34.93 -22.12,70.79 -30.47,125.11 5.4,-54.58 12.42,-91.42 20.34,-127.48 7.74,-36.11 16.29,-71.73 32.35,-122.98 7.78,-24.85 16.59,-49.54 26.76,-72.08"
         style="fill:#617831;fill-opacity:1;fill-rule:evenodd;stroke:none"
         id="path138" />
      <path
         d="m 5008.98,6881.53 c 29.84,35.06 65.13,84.6 98.32,134.99 34.1,52.03 58.6,86.67 84.87,120.8 26.67,33.65 55.55,66.57 104.44,109.03 -51.34,-39.32 -83.91,-69.12 -114.98,-99.67 -30.61,-30.89 -60.48,-62.23 -100.5,-110.83 -38.96,-47.03 -72.94,-97.53 -97.21,-135.97 -24.23,-38.4 -38.75,-65.53 -33.54,-69.89 4.81,-4 28.67,16.37 58.6,51.54"
         style="fill:#617831;fill-opacity:1;fill-rule:evenodd;stroke:none"
         id="path140" />
      <path
         d="m 6383.01,6839.96 c 3.92,3.25 8.3,7.38 13.46,12.27 5.16,4.8 10.6,10.58 14.97,17.62 9.32,13.79 21.45,29.78 29.27,48.83 4.38,9.36 8.77,19.07 12.99,29.02 2.62,8.89 5.79,18.94 9.5,31 11.65,43.05 15.34,73.12 18.41,103.4 2.85,30.26 4.01,61.04 1.73,106.07 -0.66,-45.17 -5.26,-75.37 -12.11,-104.68 -6.89,-29.27 -14.98,-58 -31.11,-98.19 -4.55,-11.3 -8.25,-20.78 -11.53,-29.07 -4.64,-9.93 -8.67,-18.66 -12.76,-27.4 -7.24,-18.4 -17.36,-33.68 -24,-47.96 -3.28,-7.27 -7.2,-13.36 -10.82,-18.62 -3.32,-5.47 -6.15,-10.36 -8.37,-14.55 -4.39,-8.42 -6.08,-14.06 -4.31,-15.55 1.7,-1.51 7,1.37 14.68,7.81"
         style="fill:#617831;fill-opacity:1;fill-rule:evenodd;stroke:none"
         id="path142" />
      <path
         d="m 6667.89,6955.55 c 21.53,5.9 43.74,14.26 66.75,20.61 23.4,7.14 43.28,13.2 61.67,17.58 18.22,4.89 34.81,9.07 51.61,12.39 33.44,7.47 67.88,13.19 119.27,18.04 -51.6,-2.12 -86.68,-4.67 -121.1,-8.54 -17.27,-1.49 -34.42,-3.8 -53.49,-6.62 -19.06,-2.36 -39.74,-6.32 -64.45,-11.32 -24.09,-4.37 -47.32,-12.01 -69.33,-18.41 -21.56,-7.44 -41.4,-15.64 -58.07,-22.82 -32.69,-16.42 -52.82,-29.7 -50.64,-33.59 2.35,-4.04 26.16,2.06 59.74,14 17.23,4.93 36.98,11.63 58.04,18.68"
         style="fill:#617831;fill-opacity:1;fill-rule:evenodd;stroke:none"
         id="path144" />
      <path
         d="m 1832.89,5319.37 c 64.14,62.82 47.4,166.04 -24.49,241.55 -71.86,75.54 -185.16,80.32 -284.28,77.94 -0.03,0.04 -3.34,-201.48 65.09,-280.2 65.46,-75.24 156,-108.54 243.68,-39.29"
         style="fill:#b8d77e;fill-opacity:1;fill-rule:nonzero;stroke:none"
         id="path146" />
      <path
         d="m 5329.17,4421.47 c 89.68,4.34 145.73,92.59 142.18,196.83 -3.55,104.18 -85.06,183.03 -160.71,247.1 0,0.06 -136.35,-148.37 -137.49,-252.69 -1.07,-99.71 44.46,-184.73 156.02,-191.24"
         style="fill:#b8d77e;fill-opacity:1;fill-rule:nonzero;stroke:none"
         id="path148" />
      <path
         d="m 5737.93,7285.5 c 3.95,-15.31 7.46,-29.61 10.99,-43.15 3.27,-13.38 6.26,-25.88 10.7,-37.2 3.99,-11.21 7.78,-22.04 11.55,-32.73 3.5,-10.61 7.17,-20.79 11.9,-30.48 17.26,-39.43 35.5,-78.29 70.42,-130.6 32.75,-51.54 75.25,-96.74 108.08,-129.21 33.94,-31.58 58.74,-50.53 61.33,-48.06 2.9,2.72 -17.07,26.05 -47.74,59.71 -29.6,34.58 -70.44,79.34 -105.9,127.8 -37.52,49.22 -58.74,85.9 -78.61,123.74 -5.45,9.25 -9.81,19.02 -13.96,29.28 -4.4,10.4 -8.84,20.94 -13.43,31.86 -5.18,10.98 -8.64,23.25 -12.58,36.42 -4.02,13.38 -8.17,27.49 -12.75,42.62"
         style="fill:#617831;fill-opacity:1;fill-rule:evenodd;stroke:none"
         id="path150" />
      <path
         d="m 5512.34,5412.44 c 61.87,75.31 161.13,163.16 269.26,240.54 111.65,79.65 194.46,126.57 278.63,172.66 84.76,45.35 172.28,88.97 305.67,145.28 -134.54,-53.84 -223.82,-94.55 -310.75,-136.83 -86.45,-43.01 -172.02,-86.44 -288.01,-163.26 -112.52,-74.62 -213.7,-165.66 -273.36,-245.79 -8.13,-9.54 -14.9,-19.34 -20.8,-29.05 -5.84,-9.21 -11.67,-18.24 -17.24,-27.09 -5.2,-8.64 -10.73,-16.33 -14.43,-24.14 -3.39,-7.37 -6.68,-14.54 -9.91,-21.67 -11.52,-26.26 -17.19,-41.5 -14.84,-42.29 5.98,-2.37 33.32,56.56 95.78,131.64"
         style="fill:#617831;fill-opacity:1;fill-rule:evenodd;stroke:none"
         id="path152" />
      <path
         d="m 5800.94,4634.48 c -3.07,-25.03 -5.44,-42.43 -0.6,-44.15 4.13,-1.59 14.9,14 23.28,40.17 7.45,26.12 12.13,62.21 8.39,97.45 -7.16,72.37 -15.58,97.83 -29.42,170.83 8.05,-73.62 8.35,-100.44 5.3,-171.11 -1.37,-34.3 -4.69,-67.83 -6.95,-93.19"
         style="fill:#617831;fill-opacity:1;fill-rule:evenodd;stroke:none"
         id="path154" />
      <path
         d="m 6298.19,4929.85 c 40.6,18.56 83.23,38.89 150.53,42.33 -67.3,-0.84 -111.53,-18.26 -153.85,-33.74 -42.22,-16.61 -83.26,-35.61 -141.21,-67.38 -111.97,-63.18 -214.43,-141.67 -210.95,-147.87 4.92,-8.57 114.74,59.44 220.95,129.3 55.1,35.29 94.03,57.65 134.53,77.36"
         style="fill:#617831;fill-opacity:1;fill-rule:evenodd;stroke:none"
         id="path156" />
      <path
         d="m 5261.52,4172.53 c 21.19,33.77 39.79,83.22 48.17,133.58 8.68,51.85 10.6,87.5 12.13,123.41 1.23,35.97 1.69,72.25 0.17,125.78 -1.31,-53.53 -5.32,-89.6 -10.55,-124.98 -5.54,-35.24 -12.05,-70.06 -25.49,-119.63 -12.9,-48.19 -29.37,-94.88 -45.03,-128.63 -15.44,-33.83 -30.11,-54.71 -26.08,-57.96 3.11,-2.76 25.62,14.3 46.68,48.43"
         style="fill:#617831;fill-opacity:1;fill-rule:evenodd;stroke:none"
         id="path158" />
      <path
         d="m 3922.52,3307.79 c 45.44,-86.62 81.41,-177.64 89.11,-175.77 7.22,1.45 -18.65,98.06 -72.21,183.69 -27.23,44.03 -49.22,72.19 -72.81,99.51 -23.79,27.21 -49.96,53.37 -93.41,85.96 42.12,-34.34 65.97,-61.89 86.75,-90.43 20.79,-28.73 39.38,-58.15 62.57,-102.96"
         style="fill:#617831;fill-opacity:1;fill-rule:evenodd;stroke:none"
         id="path160" />
      <path
         d="m 4223.28,6927.41 c 49.53,-30.05 105.97,-50.05 149.15,-61.85 43.61,-10.47 73.8,-13.19 75.31,-8.39 1.67,5.26 -25.32,16.72 -65.67,31.61 -39.87,16.37 -93.13,36.51 -144.28,61.14 -53.4,24.29 -88.01,44.52 -122.42,65.62 -34.14,21.5 -67.36,45.43 -112.62,84.36 42.85,-41.17 73.3,-68.09 104.96,-93.22 31.78,-24.9 63.79,-49.51 115.57,-79.27"
         style="fill:#617831;fill-opacity:1;fill-rule:evenodd;stroke:none"
         id="path162" />
      <path
         d="m 4364.83,7075.34 c 1.26,36.04 7.57,83.9 16.08,132.24 8.8,49.78 16.25,84.09 22.82,118.88 6.38,34.82 13.77,70.12 17.58,122.55 -6.7,-52.23 -17.45,-86.68 -27.7,-120.65 -10.48,-33.98 -22.36,-67.08 -36.27,-116.98 -13.55,-48.4 -19.16,-99.42 -15.35,-137.34 3.47,-38.04 14.37,-61.5 18.61,-60.41 5.18,1.23 2.89,25.68 4.23,61.71"
         style="fill:#617831;fill-opacity:1;fill-rule:evenodd;stroke:none"
         id="path164" />
      <path
         d="m 4625.94,6777.82 c 12.6,111.59 26.34,152.43 43.69,268.46 -23.19,-115.37 -44.54,-152.86 -67.65,-265.54 -5.31,-27.32 -7.9,-55.34 -9.41,-81.45 0.18,-26.21 -0.29,-50.71 2.18,-71.59 5.67,-41.67 11.95,-68.98 16.81,-68.46 4.72,0.54 6.93,28.37 6.22,69.29 0,20.5 1.99,44.28 1.99,69.74 1.92,25.38 3.45,52.48 6.17,79.55"
         style="fill:#617831;fill-opacity:1;fill-rule:evenodd;stroke:none"
         id="path166" />
      <path
         d="m 4079.41,7475.16 c 34.34,-30.99 70.1,-60.52 96.21,-83.25 26.13,-22.74 42.88,-38.6 44.6,-37.26 1.38,0.94 -13.15,19.07 -38.13,43.34 -24.98,24.21 -60.51,54.16 -96.08,83.69 -36.56,30.49 -61.14,51.66 -84.42,74.71 -12.17,11 -22.68,23.42 -34.59,37.44 -13.06,13.26 -22.3,31.18 -35.4,51.41 12.51,-20.48 21.28,-38.77 33.87,-52.46 11.35,-14.46 21.35,-27.4 33.11,-39 22.13,-24.14 45.57,-46.63 80.83,-78.62"
         style="fill:#617831;fill-opacity:1;fill-rule:evenodd;stroke:none"
         id="path168" />
      <path
         d="m 2839.02,7545.72 c 33.86,-18.06 59.61,-23.74 59.91,-22.42 0.84,2.11 -23.08,10.58 -55.12,29.7 -32.18,18.89 -71.73,48.58 -109.85,79.86 -39.58,32.11 -66.04,54.71 -94.01,76.39 -28.26,21.31 -56.54,43.87 -104.33,68.14 47.24,-25.19 74.52,-48.66 101.49,-71.05 26.88,-22.77 52.04,-46.44 90.3,-80.09 36.97,-32.77 77.69,-62.78 111.61,-80.53"
         style="fill:#617831;fill-opacity:1;fill-rule:evenodd;stroke:none"
         id="path170" />
      <path
         d="m 3065.96,6808.91 c 52.89,-45.41 90.44,-74.96 97.51,-71.26 6.52,3.53 -19.49,39.81 -66.75,90.17 -48.94,49.14 -120.02,111.73 -200.53,166.08 -165.31,112.18 -232.87,146.5 -409.43,256.2 169.77,-115.45 228.85,-158.05 380.28,-278.44 73.86,-58.25 144.58,-118.31 198.92,-162.75"
         style="fill:#617831;fill-opacity:1;fill-rule:evenodd;stroke:none"
         id="path172" />
      <path
         d="m 3158.83,6986.36 c 9.28,37.49 22.29,87.36 32.8,138.15 10.6,52.38 16.69,88.54 21.37,125.28 4.64,36.66 8.03,74.09 5.62,129.06 -0.48,-55.06 -7.42,-91.7 -15.92,-127.48 -8.6,-35.8 -18.98,-70.65 -34.59,-121.76 -15.19,-49.54 -27.36,-100.51 -31.95,-139.72 -4.4,-39.31 -1.66,-65.95 2.65,-65.99 5.33,-0.21 11.04,25.15 20.02,62.46"
         style="fill:#617831;fill-opacity:1;fill-rule:evenodd;stroke:none"
         id="path174" />
      <path
         d="m 3521.92,5004.59 c -8.76,-40.85 -12.4,-68.91 -14.68,-96.78 -2.08,-27.85 -3.25,-55.46 -2.9,-95.83 0.51,-39.15 2.42,-78.18 3.74,-107.46 0.99,-29.37 2.18,-48.99 4.17,-49.07 1.88,-0.1 4.04,19.55 5.06,49.11 0.61,29.51 -0.8,68.76 -3.18,107.69 -2.52,40.19 -3.19,67.59 -2.68,95.37 0.67,27.81 2.85,55.91 10.47,96.97"
         style="fill:#617831;fill-opacity:1;fill-rule:evenodd;stroke:none"
         id="path176" />
      <path
         d="m 3366.2,3865.3 c 14.55,27.42 30.5,65.93 38.09,105.62 16.3,81.34 15.21,111.14 28.76,194.52 -18.9,-82.44 -25.77,-112.41 -50.9,-189.91 -11.91,-37.64 -25.97,-74 -35.71,-101.99 -11,-27.34 -17.18,-46.79 -13.17,-49.13 3.82,-2.03 17.18,14.04 32.93,40.89"
         style="fill:#617831;fill-opacity:1;fill-rule:evenodd;stroke:none"
         id="path178" />
      <path
         d="m 3101.43,4317.37 c 3.83,3.11 -10.63,24.88 -32.72,56.23 -20.85,32.23 -48.9,74.61 -73.78,119.19 -52.09,91.5 -68.26,127.15 -112,226.87 38.29,-101.76 46.59,-139.47 90.25,-236.56 20.81,-47.39 51.1,-91.18 76.67,-121.8 26.89,-29.83 48.26,-46.78 51.58,-43.93"
         style="fill:#617831;fill-opacity:1;fill-rule:evenodd;stroke:none"
         id="path180" />
      <path
         d="m 2024.89,3442.21 c 97.35,-17.21 195.22,-36.94 198.06,-27.91 2.6,8.16 -93.63,41.45 -194.92,50.04 -51.83,4.7 -87.41,4.74 -123.34,4.2 -35.79,-0.76 -72.1,-2.99 -124.87,-8.91 53.17,3.2 89.32,2.22 124.7,-0.81 35.33,-3.18 70.1,-7.37 120.37,-16.61"
         style="fill:#617831;fill-opacity:1;fill-rule:evenodd;stroke:none"
         id="path182" />
      <path
         d="m 2509.4,3809.82 c -1.6,-9 -3.32,-17.93 -4.92,-27 -6.86,-35.37 -17.62,-69.73 -28.81,-121.52 -10.51,-50.5 -13.58,-102.55 -10.69,-141.15 3.54,-38.73 8.38,-64.15 13.29,-63.83 4.84,0.29 8.38,25.98 9.78,63.83 1.92,37.79 6.05,87.75 11.57,137.78 5.92,51.63 12.31,87.19 15.24,123.66 0.67,9.32 1.39,18.46 2.12,27.61 0.64,9.44 -0.5,19.3 -0.59,29.58 0.86,20.68 -5.53,43.01 -10.13,69.67 3.14,-26.94 7.92,-49.29 5.29,-69.71 -0.82,-10.16 -0.6,-19.76 -2.15,-28.92"
         style="fill:#617831;fill-opacity:1;fill-rule:evenodd;stroke:none"
         id="path184" />
      <path
         d="m 2214.8,3826.02 c 26.33,-21.97 44.03,-37.17 48.06,-34.3 3.67,2.58 -7.72,23.12 -31.56,49.13 -23.66,25.95 -59.82,57.07 -101.07,81.31 -42.62,24.78 -74.02,38.14 -106.25,49.56 -32.37,10.66 -66.37,20.99 -117.51,22.72 51.03,-4.45 83.14,-17.8 113.27,-31.56 29.96,-14.51 58.2,-31.18 96.37,-58.86 37.08,-27.03 72.24,-55.95 98.69,-78"
         style="fill:#617831;fill-opacity:1;fill-rule:evenodd;stroke:none"
         id="path186" />
      <path
         d="m 3521.29,3323.45 c -1.53,12.66 -2.95,24.74 -4.3,36.35 -0.74,6.48 -2.06,12.94 -2.57,19.74 l 0.17,20.9 c 0.43,14.2 -0.77,28.8 0.3,43.66 1.62,13.8 3.22,28.58 5.05,45.27 0.71,15.78 5.84,29.95 8.07,43.46 3.13,13.46 5.03,26.15 8.64,38 7.18,23.57 13.35,45.08 20.34,66.4 8.21,22.2 16.19,43.75 24.71,66.55 10.56,24.99 21.63,51.22 34.3,81.18 -14.22,-29.39 -26.8,-55.17 -38.62,-79.66 -10.44,-22.3 -20.07,-43.39 -30.17,-65.12 -8.47,-20.83 -17.14,-42.2 -26.68,-65.59 -4.67,-11.75 -7.83,-24.61 -12.13,-38.19 -3.55,-13.78 -9.88,-28.04 -11.99,-44.46 -15.55,-62.94 -8.94,-128.16 2.48,-173.92 14.3,-45.19 29.55,-72.88 33.48,-71.19 5.08,2 -2.02,32.34 -11.08,76.62"
         style="fill:#617831;fill-opacity:1;fill-rule:evenodd;stroke:none"
         id="path188" />
      <path
         d="m 1511.3,3798.93 c 28.89,-5.26 57.9,-9.8 85.22,-13.55 27.27,-4.18 53.26,-4.15 75.45,-5.29 44.48,-1.49 74.11,0 74.44,4.49 0.34,4.45 -28.5,10.88 -71.92,16.71 -21.57,3.39 -47.15,4.69 -73.96,9.14 -26.99,3.94 -55.8,7.58 -84.75,10.53 -29.92,2.39 -54.68,7.19 -77.42,10.3 -22.53,3.37 -43.44,6.43 -63.66,9.45 -40.92,6.69 -81.72,16.21 -142.3,29.5 59.73,-15.89 99.65,-28.55 139.76,-38.97 19.82,-4.84 40.37,-9.87 62.52,-15.3 22.39,-5.2 46.81,-12.22 76.62,-17.01"
         style="fill:#617831;fill-opacity:1;fill-rule:evenodd;stroke:none"
         id="path190" />
      <path
         d="m 4055.91,5435.72 c 11.45,-24.39 25.02,-50.74 38.26,-83.02 26.59,-62.43 45.79,-126.99 59.79,-175.89 12.68,-49.1 21.56,-82.28 26.72,-81.7 4.42,0.45 3.95,35.01 -4.22,86.06 -9.32,50.76 -28.2,118.13 -60.08,180.22 -15.92,32.06 -31.83,57.86 -45.49,81.6 -15.13,22.77 -29.06,43.59 -42.72,64.03 -15.35,20.8 -30.29,41.07 -46.34,62.68 -18.29,23.09 -37.74,47.54 -59.85,75.66 21.64,-30.06 40.03,-55.09 55.86,-78.12 14.29,-22.47 27.65,-43.58 41.39,-65.19 11.74,-21.15 23.67,-42.77 36.68,-66.33"
         style="fill:#617831;fill-opacity:1;fill-rule:evenodd;stroke:none"
         id="path192" />
      <path
         d="m 4928.67,3452.16 c 17.4,14.15 38.32,29.94 58.11,49.63 19.62,19.64 40.15,41.08 60,63.09 79.47,92.35 104.33,129.45 183.02,226.93 -83.58,-93.34 -115.45,-124.97 -202.4,-208.91 -21.48,-19.86 -42.38,-40.28 -61.64,-59.91 -19.33,-19.57 -38.73,-36.37 -54.04,-52.21 -31.27,-31.26 -50.17,-54.41 -46.88,-58.44 3.45,-4.03 28.7,12.14 63.83,39.82"
         style="fill:#617831;fill-opacity:1;fill-rule:evenodd;stroke:none"
         id="path194" />
      <path
         d="m 6588.64,3900.47 c 37.66,37.04 41.96,41.4 82.48,81.46 30.96,30.83 50.92,53.23 70.07,76.37 9.75,11.58 18.13,24.28 28.16,37.83 10.06,13.6 18.44,30.45 30.13,49.49 -12.41,-18.59 -21.77,-34.84 -32.38,-48.05 -11.06,-12.86 -20.12,-24.74 -30.6,-35.48 -20.93,-21.5 -42.55,-41.75 -75.52,-70.48 -32.08,-27.6 -62.42,-57.97 -82.77,-82.56 -19.61,-25.35 -30.36,-43.84 -28.08,-45.33 2.48,-1.62 17.11,13.78 38.51,36.75"
         style="fill:#617831;fill-opacity:1;fill-rule:evenodd;stroke:none"
         id="path196" />
      <path
         d="m 5825.15,3843.8 c 17.1,23.52 36.35,57.07 54.65,90.63 18.86,34.55 32.49,57.72 48.17,79.77 15.9,21.61 33.28,43.81 66.19,66.07 -33.52,-21.25 -51.96,-42.61 -69.19,-63.45 -17.12,-21.33 -32.41,-43.79 -53.08,-77.48 -20.02,-32.74 -38.64,-66.14 -53.97,-90.19 -15.08,-24.27 -26.68,-39.43 -25.14,-40.94 1.11,-1.19 15.41,11.96 32.37,35.59"
         style="fill:#617831;fill-opacity:1;fill-rule:evenodd;stroke:none"
         id="path198" />
      <path
         d="m 1664.65,5953.28 c 34.21,-25.69 72.64,-46.52 102.8,-59.29 30.29,-12.87 52.01,-17.64 52.59,-16.13 0.7,1.95 -19.73,9.59 -48.55,23.78 -28.77,14.2 -66.11,34.91 -101.05,58.76 -35.84,24.59 -58.34,43.94 -79.4,64.94 -20.43,21.32 -41.31,44.22 -57.87,84.58 15.43,-40.76 35.27,-64.63 54.72,-87.14 20.04,-22.2 41.57,-42.89 76.76,-69.5"
         style="fill:#617831;fill-opacity:1;fill-rule:evenodd;stroke:none"
         id="path200" />
      <path
         d="m 1913.25,6614.2 c 23.57,-28.09 40.08,-46.17 41.54,-45.06 3.64,2.87 -57.16,78.36 -113.33,156.78 -28.25,37.27 -50.46,66.67 -71.39,94.36 -21.12,27.31 -44.64,53.47 -77.32,93.43 31.82,-40.67 54.11,-67.52 73.95,-95.64 19.58,-28.45 40.34,-58.77 66.76,-97.04 27.19,-39.84 55.4,-79.18 79.79,-106.83"
         style="fill:#617831;fill-opacity:1;fill-rule:evenodd;stroke:none"
         id="path202" />
      <path
         d="m 2080.06,6462.8 c 27.44,41.99 44.81,71.42 61.33,101.73 15.44,30.56 34.1,61.39 43.56,111.36 -11.19,-49.6 -31.67,-79.25 -49.11,-108.56 -18.51,-29.1 -38.12,-57.02 -67.9,-97.26 -58.55,-77.57 -114.43,-158.37 -108.51,-161.84 3.92,-2.3 66.68,73.35 120.63,154.57"
         style="fill:#617831;fill-opacity:1;fill-rule:evenodd;stroke:none"
         id="path204" />
      <path
         d="m 3136.82,5104.62 c 23.14,-23.49 40.6,-37.18 43.4,-34.8 2.87,2.58 -9.36,20.29 -28.74,45.35 -18.91,25.69 -44.11,59.51 -71.01,92.91 -27.71,34.28 -47.94,57.19 -69.11,79.56 -21.26,22.33 -43.95,44.02 -79.82,73 34.44,-30.69 54.7,-53.89 73.31,-77.85 18.39,-24.04 35.23,-48.49 59.6,-84.83 23.45,-35.29 50.14,-69.42 72.37,-93.34"
         style="fill:#617831;fill-opacity:1;fill-rule:evenodd;stroke:none"
         id="path206" />
      <path
         d="m 3020.58,5754.34 c -10.09,-95.59 -7.92,-192.06 1.7,-191.88 9.83,0.25 22.22,95.49 22.42,190.54 0.3,98.54 -1.82,134.99 0.77,236.43 -8.38,-101.6 -14.51,-137.2 -24.89,-235.09"
         style="fill:#617831;fill-opacity:1;fill-rule:evenodd;stroke:none"
         id="path208" />
      <path
         d="m 1113.96,5429.52 c -3.35,6.85 -74.21,-18.19 -141.991,-47.08 -34.965,-14.88 -59.391,-24.12 -84.449,-32.4 -25.211,-8.42 -51.243,-15.34 -90.844,-21.13 39.812,3.7 66.793,8.09 93.094,13.64 26.339,5.55 52.378,11.72 89.261,23.27 72.099,22.65 138.009,57.53 134.929,63.7"
         style="fill:#617831;fill-opacity:1;fill-rule:evenodd;stroke:none"
         id="path210" />
      <path
         d="m 892.438,5510.53 c 0.941,-3.68 2,-7.72 3.07,-12.04 1.871,-6.75 3.387,-10.66 4.375,-10.56 0.941,0 1.191,4.04 0.941,11.18 -0.211,3.56 -0.39,7.98 -1.066,12.94 -1.414,6 -2.684,11.38 -3.922,16.21 -5.699,23.81 -18.664,53.96 -34.195,82.66 -34.27,57.86 -48.661,78.66 -96.129,130.54 45.566,-53.19 57.215,-75.57 87.453,-134.37 13.523,-29.09 26.707,-58.42 34.152,-81.14 1.492,-4.55 3.313,-9.65 5.321,-15.42"
         style="fill:#617831;fill-opacity:1;fill-rule:evenodd;stroke:none"
         id="path212" />
      <path
         d="m 2124.93,5497.95 c -33.21,-89.06 -71.75,-177 -62.85,-181.18 8.3,-4.1 61.44,80.65 86,174.81 12.97,48.07 18.38,81.7 22.3,115.71 4.06,33.93 5.91,68.73 1.7,119.25 1.27,-50.79 -4.01,-84.83 -12.09,-117.73 -7.75,-32.95 -17.57,-65.04 -35.06,-110.86"
         style="fill:#617831;fill-opacity:1;fill-rule:evenodd;stroke:none"
         id="path214" />
      <path
         d="m 1958.58,5214.63 c 21.3,-14.18 43.67,-24.67 62.47,-33.66 18.31,-9.7 36.6,-13.31 48.34,-16.73 12.09,-2.92 19.29,-3.54 20.01,-1.43 0.89,2.13 -4.86,6.7 -14.95,12.82 -10,6.71 -25.43,12.57 -42.24,24.02 -17.07,10.64 -37.53,21.67 -58.34,35.85 -10.52,6.61 -21.1,13.23 -32.82,20.62 -9.91,6.46 -20.88,13.6 -33.55,21.93 -92.98,60.4 -126.17,84.49 -219.12,151.67 89.37,-71.4 116.77,-100.91 204.52,-169.45 12.3,-9.14 22.8,-17.03 32.42,-24.14 11.14,-7.54 22.37,-14.64 33.26,-21.5"
         style="fill:#617831;fill-opacity:1;fill-rule:evenodd;stroke:none"
         id="path216" />
      <path
         d="m 2484.05,4618.43 c 8.85,-1.58 37.4,116.04 32.51,235.5 -1.97,61.23 -7.82,102.84 -15.07,144.58 -7.23,41.66 -17.44,83.52 -38.03,143.37 17.74,-60.69 24.51,-102.85 27.65,-144.52 3.23,-41.77 4.38,-83.08 1.33,-143.3 -4.94,-116.77 -18.55,-234.12 -8.39,-235.63"
         style="fill:#617831;fill-opacity:1;fill-rule:evenodd;stroke:none"
         id="path218" />
      <path
         d="m 1568.5,4161.98 c 20.82,87.3 37.33,117.79 60.77,208.2 -25.74,-90.06 -45.11,-118.69 -70.08,-206.26 -6.57,-21.14 -9.44,-43.16 -11.92,-63.79 -2.37,-20.61 -0.08,-40.23 0,-56.73 5.63,-32.96 11.45,-54.37 13.2,-53.92 1.99,0.4 -0.44,22.29 -4.05,54.49 0.97,16.25 -0.68,35.21 1.7,55.28 2.68,20.19 4.88,41.62 10.38,62.73"
         style="fill:#617831;fill-opacity:1;fill-rule:evenodd;stroke:none"
         id="path220" />
      <path
         d="m 703.637,6201.63 c 43.273,-35.06 82.98,-73.37 110.039,-104.31 27.14,-30.74 42.804,-53.61 47.703,-51.49 3.871,1.53 -4.387,28.86 -29.02,64.09 -24.379,35.15 -65.578,76.39 -113.527,109.08 -49.312,33.57 -86.68,51.51 -125.234,67.21 -19.344,7.75 -39.266,14.45 -62.157,20.44 -22.882,4.95 -48.914,11.06 -80.269,8.42 31.465,1.28 56.738,-6.3 78.949,-12.69 21.91,-7.39 40.774,-15.63 58.906,-24.83 35.93,-18.66 69.965,-39.87 114.61,-75.92"
         style="fill:#617831;fill-opacity:1;fill-rule:evenodd;stroke:none"
         id="path222" />
      <path
         d="m 718.73,6354.59 c 1.231,14.36 0.391,31.18 2.778,48.99 1.898,17.88 3.828,36.91 5.351,55.94 9.036,78.33 14.016,107.04 32.305,186.95 -20.59,-79.45 -28.809,-107.57 -41.961,-185.9 -2.551,-19.12 -4.68,-38.28 -6.551,-56.3 -2.308,-17.97 -0.847,-34.98 -1.156,-49.51 0.481,-28.97 1.836,-48.27 3.84,-48.2 1.867,0 4.008,19.35 5.394,48.03"
         style="fill:#617831;fill-opacity:1;fill-rule:evenodd;stroke:none"
         id="path224" />
      <path
         d="m 1936.38,7305.74 c 23.2,42.07 39.02,71.02 52.56,101.31 13.14,30.31 26.41,61.76 32.88,110.34 -7.65,-48.41 -22.21,-79.24 -36.72,-108.75 -14.97,-29.51 -32.33,-57.43 -57.27,-98.77 -24.44,-39.9 -45.48,-82.37 -55.15,-116.27 -9.79,-33.94 -9.06,-57.68 -7.69,-57.65 2.46,-0.15 5.15,22.73 16.58,55.22 11.16,32.54 32.13,73.82 54.81,114.57"
         style="fill:#617831;fill-opacity:1;fill-rule:evenodd;stroke:none"
         id="path226" />
      <path
         d="m 981.332,6450.55 c 13.231,22.36 29.228,52.55 49.648,80.68 19.9,29.67 36.92,48.16 55.03,65.88 18.41,17.61 39.26,33.65 73.99,52.24 -36.06,-16.18 -59.32,-29.73 -80.84,-44.99 -21.5,-15.4 -42.43,-31.57 -67.7,-59.99 -25.667,-27.09 -42.183,-60.38 -51.487,-85.82 -8.125,-25.98 -9.196,-44.18 -4.68,-45.2 4.941,-1.18 14.117,14.37 26.039,37.2"
         style="fill:#617831;fill-opacity:1;fill-rule:evenodd;stroke:none"
         id="path228" />
      <path
         d="m 3658.99,6294.67 c 17.66,23.44 36.72,39.57 52.16,56.03 16.3,15.69 33.19,27.67 49.1,41.06 16.55,12.46 35,22.99 54.94,35.94 20.5,12.18 44.89,23.01 73.23,37.27 -28.98,-13.03 -54.22,-22.6 -75.73,-33.4 -20.99,-11.62 -40.5,-20.84 -58.64,-32.01 -17.37,-12.12 -35.92,-22.78 -54.35,-37.35 -17.53,-15.3 -38.97,-30.55 -59.17,-53.28 -83.63,-85.52 -128.55,-193.11 -121.4,-196.03 10.15,-5.07 67.53,94.71 139.86,181.77"
         style="fill:#617831;fill-opacity:1;fill-rule:evenodd;stroke:none"
         id="path230" />
      <path
         d="m 4078.65,3615.31 c 8.4,33.55 11.07,44.16 20.37,81.49 7.48,30.57 12.32,51.62 16.43,73.03 4.15,21.42 7.59,43.17 9.76,75.54 -3.16,-32.29 -7.71,-53.84 -13.07,-74.88 -5.5,-21.15 -11.66,-41.68 -20.78,-71.88 -9.05,-29.28 -16.22,-59.26 -20.08,-82.03 -3.32,-22.86 -4.05,-38.28 -2.44,-38.43 1.6,-0.15 5.04,14.85 9.81,37.16"
         style="fill:#617831;fill-opacity:1;fill-rule:evenodd;stroke:none"
         id="path232" />
      <path
         d="m 3590.85,7286.29 c 18.1,40.04 40.97,94.05 56.93,149.92 17.24,57.29 25.53,97.26 32.3,137.87 6.76,40.56 10.94,82.1 10.76,143.37 -0.91,-61.27 -6.54,-102.54 -14.98,-142.77 -8.24,-40.15 -18.28,-79.55 -37.36,-135.97 -17.66,-54.94 -39.93,-108.71 -56.15,-149.2 -16.97,-40.3 -28.42,-67.23 -26.52,-68.07 1.54,-0.66 16.23,25.03 35.02,64.85"
         style="fill:#617831;fill-opacity:1;fill-rule:evenodd;stroke:none"
         id="path234" />
      <path
         d="m 4440.51,7974.49 c 24.59,24.91 44.13,39.51 64.73,53.21 20.81,13.33 43.56,24.74 79.65,36.51 -36.33,-10.71 -60,-21.02 -81.96,-33.26 -21.61,-12.6 -42.76,-26.15 -69.32,-50.26 -52.17,-46.81 -87.81,-105.85 -85.01,-107.28 3.78,-2.41 43.83,52.95 91.91,101.08"
         style="fill:#617831;fill-opacity:1;fill-rule:evenodd;stroke:none"
         id="path236" />
      <path
         d="m 5706.71,6256.77 c 4.94,-25.78 10.39,-51.46 15.83,-75.51 6.39,-23.91 7.91,-46.93 12.01,-66.21 6.97,-38.86 13.22,-64.79 16.07,-64.58 2.97,0.22 1.88,26.7 -2.34,66.27 -2.68,19.68 -3.45,43.07 -9.66,67.19 -5.31,24.33 -11.4,50.14 -17.78,75.79 -5.87,26.66 -14.53,48.18 -21.02,68.06 -6.68,19.68 -12.76,37.85 -18.85,55.44 -12.43,35.71 -29.58,70.41 -50.63,122.8 19.44,-53.01 34.58,-88.26 44.71,-124.47 4.73,-17.88 9.7,-36.29 14.97,-56.2 5.12,-20.1 12.3,-41.85 16.69,-68.58"
         style="fill:#617831;fill-opacity:1;fill-rule:evenodd;stroke:none"
         id="path238" />
      <path
         d="m 7476.72,5879.71 c 46.29,35.59 81.14,56.13 117.41,75.15 36.41,18.86 75.22,34.81 135.47,50.66 -60.51,-14.81 -100.21,-29.6 -137.4,-47.28 -37.26,-17.83 -73.52,-37.04 -121.48,-71.57 -47.56,-32.61 -88.28,-72.86 -117.27,-103.88 -28.01,-31.86 -44.28,-54.79 -42.97,-55.67 1.66,-1.24 20.68,19.72 49.95,50.07 30.22,29.49 70.64,68.91 116.29,102.52"
         style="fill:#617831;fill-opacity:1;fill-rule:evenodd;stroke:none"
         id="path240" />
      <path
         d="m 7109.8,4873.38 c 57.32,-3.55 96.61,-9.29 136.31,-14.7 39.68,-5.63 79.83,-12.36 139.05,-22.03 -58.76,12 -98.21,21.42 -137.41,30.3 -39.19,8.57 -77.98,17.92 -136.11,25.63 -56.35,8.93 -114.55,6.29 -156.95,0.45 -42.3,-8.08 -69.07,-17.67 -67.93,-21.03 1.26,-4.08 29.51,-1.27 70.62,2.73 41.58,1.71 96.83,3.48 152.42,-1.35"
         style="fill:#617831;fill-opacity:1;fill-rule:evenodd;stroke:none"
         id="path242" />
      <path
         d="m 7191.22,6173.44 c 8.03,14.1 15.69,31.46 26.54,48.73 8.98,15.45 18.04,31 32.03,54.87 10.39,19.74 21.48,35.08 31.03,49.3 9.53,14.15 18.42,27.28 26.84,39.91 8.13,13.27 18.82,24.88 30.09,38.55 12.29,14.79 25.06,29.86 38.98,46.52 -14.5,-16.25 -27.66,-31.03 -40.5,-45.4 -11.84,-13.32 -23.19,-24.56 -31.97,-37.47 -9.27,-12.25 -18.81,-24.97 -29.1,-38.73 -10.38,-13.83 -22.29,-28.79 -33.66,-48.16 -14.65,-23.81 -24.08,-39.3 -33.53,-54.73 -10.68,-17.49 -17.83,-35.14 -25.19,-49.78 -13.78,-29.52 -22.13,-49.6 -20.29,-50.25 1.69,-0.72 13.14,18.05 28.73,46.64"
         style="fill:#617831;fill-opacity:1;fill-rule:evenodd;stroke:none"
         id="path244" />
      <path
         d="m 7133.68,6290.89 c 16.5,-26.05 25.52,-44.5 27.66,-43.71 1.53,0.45 -4.47,20.39 -19.61,47.81 -14.9,27.44 -39.41,61.34 -64.39,94.34 -25.74,34.07 -42.26,57.93 -55.86,83.56 -13.19,25.69 -25.49,53.49 -26.65,96.69 -0.03,-43.2 10.99,-71.72 22.73,-98.27 12.39,-26.61 27.66,-51.63 51.65,-86.94 23.57,-34.1 48.08,-67.41 64.47,-93.48"
         style="fill:#617831;fill-opacity:1;fill-rule:evenodd;stroke:none"
         id="path246" />
      <path
         d="m 7106.03,5997.89 c 29.74,-46.54 52.17,-96.67 68.94,-134.19 15.56,-37.97 25.19,-63.88 27.27,-63.25 1.66,0.34 -4.72,27.11 -18.59,66.14 -15.06,38.56 -37.44,89.62 -69.24,135.78 -31.44,48.1 -57.86,78.07 -85.61,107.05 -27.99,28.79 -59.31,55.74 -110.04,89.55 50.05,-34.67 80.22,-62.51 106.8,-92.1 26.4,-29.77 51.19,-60.46 80.47,-108.98"
         style="fill:#617831;fill-opacity:1;fill-rule:evenodd;stroke:none"
         id="path248" />
      <path
         d="m 1062.52,4329.19 c 87.23,-62.39 185.19,-112.19 262.71,-140.36 77.62,-28.67 133.95,-34.34 134.51,-30.58 1.27,5.04 -51.71,18.16 -125.46,50.17 -73.91,31.59 -168.79,81.04 -257.52,138.83 -91.467,59.47 -149.733,106.03 -205.342,156.11 -27.531,25.28 -54.047,51.81 -81.48,83.55 -27.071,31.87 -55.411,68.93 -80.551,117.61 23.832,-49.26 50.883,-87.27 76.761,-120.31 26.079,-32.92 51.481,-60.78 77.77,-87.54 53.117,-53.12 108.898,-103.26 198.602,-167.48"
         style="fill:#617831;fill-opacity:1;fill-rule:evenodd;stroke:none"
         id="path250" />
      <path
         d="m 1075.03,4330.91 -399.456,69.51 c 97.164,-24.06 129.977,-37.27 224.774,-58.56 45.961,-10.64 93.582,-15.04 129.272,-16.68 35.73,0 59.57,1.58 59.49,3.25 -0.06,0.87 -5.24,1.69 -14.08,2.48"
         style="fill:#617831;fill-opacity:1;fill-rule:evenodd;stroke:none"
         id="path252" />
      <path
         d="m 4693.86,4637.55 -208.49,337.6 c 64.94,-121.83 106.55,-232.14 208.49,-337.6"
         style="fill:#617831;fill-opacity:1;fill-rule:nonzero;stroke:none"
         id="path254" />
      <path
         d="m 4693.86,4637.55 c 1.51,1.22 -12.46,18.93 -33.86,44.89 -20.04,26.91 -46.34,62.76 -68.8,100.87 -47.24,78.2 -60.69,108.94 -105.83,191.84 43.06,-83.91 53.36,-115.59 97.31,-196.08 20.98,-39.28 48.16,-75.66 69.99,-101.79 23.16,-25.21 39.83,-40.88 41.19,-39.73"
         style="fill:#617831;fill-opacity:1;fill-rule:evenodd;stroke:none"
         id="path256" />
      <path
         d="m 5063.58,5490.43 c 7.06,35.09 14.5,81.79 32.98,126.2 3.52,11.71 8.26,22.2 12.98,31.8 4.49,9.62 8.71,18.77 12.75,27.59 9.4,16.74 18.05,32.24 26.36,47.27 18.49,29.87 38.23,59.77 69.61,102.51 -33.75,-41.15 -56.44,-69.26 -78.48,-97.38 -10.29,-14.27 -20.89,-29 -32.33,-45 -5.25,-8.54 -10.55,-17.53 -16.3,-26.89 -6.01,-9.41 -11.99,-19.77 -17.06,-31.71 -24.04,-44.82 -31.19,-95.67 -33.48,-132.66 0.76,-37.42 5.13,-61.85 9.86,-61.69 4.95,0.17 9.24,24.5 13.11,59.96"
         style="fill:#617831;fill-opacity:1;fill-rule:evenodd;stroke:none"
         id="path258" />
      <path
         d="m 2923.61,7617.32 c 6.81,38.12 13.29,63.97 21.23,89.73 7.92,25.76 17.96,51.51 38.38,87.04 -21.96,-34.71 -34.05,-59.91 -44.34,-85.2 -10.34,-25.32 -19.58,-50.78 -29.48,-88.95 -20.01,-74.26 -18.3,-151.73 -12.6,-151.66 5.99,-0.07 12.89,75.12 26.81,149.04"
         style="fill:#617831;fill-opacity:1;fill-rule:evenodd;stroke:none"
         id="path260" />
      <path
         d="m 7025.18,5211.09 c 8.84,-1 27.19,100.22 11.18,201.06 -7.65,51.64 -18.03,86.14 -30.24,120.17 -12.13,34.09 -27.83,67.58 -57.33,113.21 26.91,-47.05 39.1,-81.32 47.33,-115.77 8,-34.54 13.69,-68.96 16.2,-119.71 5.8,-98.3 2.48,-198.08 12.86,-198.96"
         style="fill:#617831;fill-opacity:1;fill-rule:evenodd;stroke:none"
         id="path262" />
      <path
         d="m 6257.51,6543.32 c 40.36,9.68 82.39,16.02 144.94,17.16 -62.55,-0.06 -104.98,-5.1 -145.95,-13.38 -40.86,-8.45 -81.19,-18.55 -137.23,-40.62 -54.85,-20.31 -105.36,-49.67 -142,-72.82 -35.81,-24.18 -57.95,-42.49 -56.92,-43.68 1.45,-1.64 25.56,14.17 62.16,36.64 37.32,21.36 87.27,50 140.75,71.66 54.51,23.59 93.91,35.17 134.25,45.04"
         style="fill:#617831;fill-opacity:1;fill-rule:evenodd;stroke:none"
         id="path264" />
      <path
         d="m 5425.67,3533.92 c 30.34,-4.33 62.71,-9.66 94.76,-15.82 33.17,-5.58 60.48,-13.64 85.4,-19.66 24.78,-6.3 47.6,-12.02 69.71,-17.66 44.83,-11.93 89.51,-26.42 156.02,-44.68 -67.42,15.31 -112.93,26.3 -158.55,34.18 -22.56,3.51 -45.76,7.14 -70.87,11.09 -25.33,3.71 -52.8,9.28 -86.14,12.19 -32.14,3.56 -64.19,7.91 -94.14,12.54 -29.99,5.14 -58.4,6.88 -82.34,10.87 -48.25,6.87 -80.53,14.19 -80.31,19.26 0.27,5.03 33.24,6.37 82.53,4.38 24.6,-1.52 53.58,-1.77 83.93,-6.69"
         style="fill:#617831;fill-opacity:1;fill-rule:evenodd;stroke:none"
         id="path266" />
      <path
         d="m 2802.22,2963.12 c 46.61,-3.07 78.13,-5.52 82.46,-0.14 4.06,4.86 -21.08,16.47 -65.95,24.92 -44.56,8.59 -108.98,13.64 -177.42,8.93 -70.62,-5.12 -120.45,-13.48 -170.54,-24.2 -50.06,-11.58 -102.2,-24.43 -174.48,-56.82 73.31,29.74 124.14,38.56 172.42,45.7 48.35,6.35 95.26,9.54 160.92,8.99 63.86,-0.66 125.86,-4.32 172.59,-7.38"
         style="fill:#617831;fill-opacity:1;fill-rule:evenodd;stroke:none"
         id="path268" />
      <path
         d="m 5101.93,2932.62 c -6.4,-63.04 49.32,-111.45 122.48,-119.94 73.12,-8.48 136.77,40.17 189.45,86.23 0.03,0 -89.27,110.82 -161.99,122.58 -69.51,11.24 -133.67,-11.62 -149.94,-88.87"
         style="fill:#b8d77e;fill-opacity:1;fill-rule:nonzero;stroke:none"
         id="path270" />
      <path
         d="m 4547.52,2733.6 c -149.47,-92.29 -274.11,-219.8 -355.25,-323.05 -21.02,-25.33 -38.02,-50.33 -53.06,-72.49 -7.26,-10.71 -14.26,-21 -21.04,-30.95 -6.16,-9.82 -11.35,-19.11 -16.2,-27.43 -19.14,-33.28 -29.16,-52.75 -27.37,-53.85 4.67,-2.84 49.9,72.23 133.32,172.07 83.45,99.32 206.34,223.57 351.12,318.05 18.57,12.14 36.43,23.84 53.69,35.08 17.92,10.04 35.2,19.71 51.95,29.06 32.87,19.9 66.17,33.06 96.84,47.77 62.38,27.09 120.47,47.05 180.44,61.53 29.56,9.26 60.42,12.45 91.87,18.09 31.41,6.59 64.5,7.3 99.29,9.58 34.88,3.87 71.7,-0.13 111.36,-1.44 9.88,-0.75 20.07,-0.29 30.19,-2.05 10.21,-1.62 20.54,-3.21 31.09,-4.88 21.15,-3.31 43.1,-6.76 65.92,-10.34 -22.77,3.92 -44.66,7.69 -65.76,11.31 -10.54,1.82 -20.9,3.61 -31.06,5.38 -10.15,1.95 -20.33,1.67 -30.25,2.58 -39.68,2.05 -76.59,6.78 -111.64,3.68 -35,-1.54 -68.27,-1.47 -100,-7.32 -31.77,-4.82 -63.08,-7.23 -93.08,-15.65 -60.85,-12.92 -120.21,-31.28 -184.08,-56.87 -31.46,-13.94 -65.63,-26.4 -99.46,-45.58 -17.21,-9.07 -35.04,-18.37 -53.47,-28.07 -17.8,-10.97 -36.23,-22.34 -55.36,-34.21"
         style="fill:#617831;fill-opacity:1;fill-rule:evenodd;stroke:none"
         id="path272" />
      <path
         d="m 4807.46,2963.72 c -6.9,-9.75 -12.69,-17.97 -17.93,-25.3 -5.61,-9.27 -10.53,-17.46 -15.52,-25.62 -2.52,-4.02 -5.05,-8.01 -7.71,-12.13 -1.99,-3.94 -4.03,-7.95 -6.14,-12.18 -3.6,-6.79 -7.51,-14.12 -11.8,-22.23 -13.07,-28.03 -21.55,-47.82 -26.12,-46.8 -3.7,0.67 -2.4,22.92 7.52,54.49 3.67,8.99 7.01,17.13 10.06,24.63 1.93,4.34 3.77,8.85 5.94,13.28 2.6,4.44 5.14,8.69 7.73,12.99 5.35,8.57 10.74,17.07 16.79,26.78 6.33,8.67 13.61,16.86 20.62,25.15 29.45,33.78 53.47,52.95 78.23,70.98 24.69,18.05 51.61,33.89 93.35,51.5 -40.75,-20 -65.56,-38.25 -87.63,-58.61 -22.01,-20.35 -42.65,-41.89 -67.39,-76.93"
         style="fill:#617831;fill-opacity:1;fill-rule:evenodd;stroke:none"
         id="path274" />
      <path
         d="m 4711.42,2727.61 c -50.13,3.3 -99.32,-2.5 -133.94,-14.33 -34.7,-11.68 -55.04,-27.47 -58.4,-23.62 -2.49,2.13 13.9,24.94 50.89,42.32 36.7,17.38 91.72,24.5 143.28,16.64 53.24,-7.47 87.97,-18.22 123.02,-28.75 34.95,-10.72 69.73,-23.09 121.53,-39.86 -52.51,14.32 -88.22,23.74 -123.84,31.01 -35.56,7.06 -71.01,13.75 -122.54,16.59"
         style="fill:#617831;fill-opacity:1;fill-rule:evenodd;stroke:none"
         id="path276" />
      <path
         d="m 7218.13,5545.21 c 154.45,316.53 285.18,670.35 547.93,916.51 -391.13,-351.45 -507.09,-905.97 -829.38,-1309.98 -325.64,-408.14 -878.96,-539.38 -1330.6,-755.25 321.82,283.73 658.38,591.65 778.05,1006.89 -1.29,-0.3 -2.56,-0.63 -3.83,-0.94 -110.33,-353.85 -384.26,-627.66 -663.6,-872.38 -54.76,-47.98 -83.67,-105.29 -147.09,-144.38 -54.59,-33.68 -349.49,-182.94 -439.9,-229.4 -87.17,-44.8 -480.62,-278.17 -480.62,-278.17 0,0 353.14,674.47 402.67,743.59 34.28,47.85 60.61,100.55 87.07,152.95 23.3,46.13 494.1,844.18 582.95,1064.61 16.92,41.95 33.01,84.19 48.21,126.79 35.27,98.98 67.55,199.11 100.72,298.82 36.42,109.6 82.83,163.48 168.03,241.54 158.71,145.45 331.54,274.74 497.71,411.35 298.42,245.31 361.74,268.84 597.11,646.69 -371.64,-569.85 -805.9,-619.2 -1202.99,-1117.61 94.26,290.22 182.76,582.71 250.12,880.5 58.98,268.82 128.46,578 55.31,850.66 69.94,-285.91 -15.23,-611.58 -90.19,-888.22 -80.98,-298.87 -185.41,-590.7 -295.32,-879.97 -104.43,-274.75 -207.95,-547.61 -349.25,-805.98 -162.64,-297.45 -353.56,-578.38 -533.17,-865.62 100.84,268.08 99.47,564.54 86.66,846.85 -15.17,333.54 -41.85,666.25 -55.58,999.98 -26.35,638.32 51.75,1262.62 532.03,1729.21 -644.91,-603.77 -634.24,-1518.92 -585.06,-2337.86 -156.25,433.88 -489.26,775.09 -659.59,1201.69 -159.04,398.37 -202.03,830.26 -226.58,1254.9 13.75,-338.84 33.43,-682.09 114.04,-1012.7 93.51,-383.42 297.73,-696.61 503.83,-1027.37 90,-144.47 176.56,-291.54 244.14,-448.08 71.05,-164.64 53.73,-385.15 59.04,-563.38 5.41,-181.97 2.99,-365.64 -29.22,-545.29 -10.82,-60.51 -30.39,-119.17 -41.03,-179.44 -14.92,-84.2 -105.98,-186.14 -148.97,-261.65 -83.73,239.63 -124.59,568.55 -10.39,805.45 -117.3,-227.95 -114.41,-566.27 -13.49,-798.76 35.82,-82.48 -175.2,-387.06 -263.73,-397.9 10.93,203.7 -198.64,715.99 -210.02,779.45 -9.16,51.21 -29.97,568.83 -17.48,686.94 8.22,77.92 23.3,154.86 34.6,232.34 5.65,38.75 10.71,77.62 13.5,116.7 1.56,22.07 -6.03,68.34 -1.72,95.25 -6.52,-29.25 -16.15,-97.57 -24.08,-127.65 -26.09,-99.29 -50.78,-194.41 -67.5,-297.52 -42.34,-261.61 -61.19,-550.19 -16.95,-813.33 29.02,-172.64 109.49,-334.63 138.16,-505.07 21.19,-126.04 23.63,-271.45 -22.95,-391.92 -51.29,-132.61 -150.82,-241.77 -200.74,-377.75 4.59,12.49 -32.56,348.42 -100.18,544.82 -35.15,102.12 -92.16,194.21 -146.24,287.03 -25.28,43.38 -45.76,87.72 -66.93,132.2 -15.5,32.57 -51.16,66.03 -59.24,103.54 7.1,-73.81 29.74,-145.31 58.89,-213.03 32.78,-76.16 84.96,-142.96 106.79,-223.39 56.16,-206.98 94.51,-441.4 55.42,-652.69 -32.67,-176.61 -137.4,-581.68 -156.07,-603.5 -24.92,60.71 -205.31,429.3 -234.64,490.46 -47.38,98.73 -168.91,468.69 -195.03,544.52 -42.78,124.3 -77.81,254.72 -80.74,386.89 -2.85,127.84 46,221.64 126.04,319.33 204.96,250.09 459.92,476.65 547.65,798.32 -65.58,-235.59 -239.63,-418.45 -413.06,-582.84 -91.64,-86.85 -182.2,-174.52 -272.84,-262.32 -48.53,-47.04 -54.8,-19.82 -62.57,36.66 -5.42,39.4 -3.34,79.32 -6.92,118.81 -7.97,87.94 -4.8,176.63 11.59,263.27 18.27,96.57 52.51,189.35 78.84,284.04 52.17,187.61 120.72,367.79 166.21,557.01 48.36,201.13 82.44,405.78 99.97,611.91 54.63,642.51 -7.1,1289.33 -76.72,1928.12 71.79,-802.46 123.24,-1631 -74.07,-2420.64 12.21,451.76 -169.63,842.01 -347.58,1245.26 -167.84,376.02 -300.56,766.4 -416.34,1161.06 131.68,-492.46 283.78,-978.03 474.92,-1450.99 103.9,-256.87 182.65,-522.05 206.7,-799.05 11.11,-128.78 10.12,-257.8 -1.49,-386.52 -11.95,-131.57 -75.52,-255.42 -121.86,-378.27 -70.23,256.73 -248.9,468.58 -359.33,707.2 -106.09,229.3 -181.07,463.49 -254.09,704.99 62.21,-229.85 116.76,-459.69 204.07,-681.71 99.62,-253.3 262.33,-473.84 366.84,-724.39 42.3,-101.28 -40.59,-236.48 -67.37,-341.49 -32.77,-128.54 -50.97,-260.9 -51.05,-393.62 -0.22,-297.46 17.58,-592.08 58.46,-886.95 -340.15,703.07 -895.98,1290.1 -1178.44,2021.71 -30.47,78.98 -13.5,102.85 6.07,181.92 22.62,91.34 35.95,184.89 43.79,278.61 16.77,202.54 6.47,404.91 -19.24,606.2 -41.82,327.65 -122.1,650.8 -234.23,961.37 206.12,-617.66 249.01,-1280.76 164.03,-1923.9 -95.01,267.6 -176.41,540.02 -281.56,803.95 113.44,-312.2 187.96,-636.28 290.5,-951.9 105.27,-324.16 265.73,-620.2 437.38,-913.09 -230.67,199.36 -503.59,337.51 -745.36,521.43 -105.71,80.41 -196.88,172.13 -286.5,269.69 -89.48,98.71 -222.12,210.1 -257.18,340.01 -141.694,507.85 20.17,1034.69 -36.507,1550.38 39.317,-497.83 -219.953,-1071.99 4.207,-1543.93 -24.925,34.17 -52.246,67.66 -74.07,103.97 15.227,-25.36 -16.055,24.9 0,0 -150.215,233.31 -273.699,481.62 -414.793,720.35 185.442,-331.5 330.367,-683.03 558.733,-988.99 119.41,-159.91 244.2,-322.38 394.36,-454.9 171.52,-151.43 372.54,-264.12 564.19,-387.31 151.39,-97.33 330.62,-192.86 421.47,-350.74 116.58,-202.57 237.6,-401.62 359.43,-601.03 112.62,-184.29 220.69,-371.79 309.38,-568.99 79.44,-176.65 103.79,-373.27 151.27,-560.74 -124.92,149.6 -274.16,277.25 -433.85,388.33 -74.26,51.67 -150.85,99.86 -229.06,145.37 -69.56,40.47 -100.98,164.09 -141.31,235.47 -176.97,312.93 -422.06,591.17 -506.94,947.87 83.65,-412.95 346.58,-764.41 547.98,-1126.33 -315.57,174.12 -626.06,330.22 -870.53,604.03 -238.06,266.66 -385.04,597.68 -481.03,938.98 152.16,-611.82 475.16,-1125.01 1019.81,-1458.92 547.51,-335.67 1111.36,-698.73 1225.42,-1381.6 33.89,-302.1 3.18,-602.7 -22.68,-906.55 -10.43,-122.62 -22.77,-255.912 -77.75,-368.22 C 3251.94,651.5 3235.3,563.512 3161.78,472 3090.71,383.531 2962.26,301.57 2880.79,274.461 c -43.25,-14.391 -163.58,-26.91 -166.13,-75 54.92,-12.41 167.16,3.238 167.16,3.238 0,0 113.99,17.871 170.22,28.41 72.87,13.7 143.8,35.633 217.31,46.692 25.24,3.82 77.99,17.129 101.79,1.91 48.86,-31.27 -93.52,-129.93 -108.17,-140.813 -22.54,-16.726 -81.18,-27.527 -70.26,-45.3589 18.45,-30.0899 235.34,36.1909 259.64,44.2309 70.74,23.429 125.68,87.839 201.58,97.5 95.55,12.16 142.54,-72.93 196.17,-136.3286 24.69,-29.2109 128.93,-165.7227 132.93,-58.4492 1.89,50.9687 -36.79,96.7068 39.44,106.8868 52.67,7.043 178.36,-65.4298 253.77,-73.547 37.69,-4.0429 82.01,-20.1132 54.12,19.7891 -14.32,20.5389 -55.24,35.0079 -73.4,51.4809 -18.36,16.648 -32.21,41.808 -40.96,64.757 -12.56,32.993 -17.67,56.473 19.12,40.571 54.85,-23.75 115.22,-52.809 169.44,-78.621 72.46,-34.477 160.31,-57.059 239.84,-65.688 30.47,-3.281 77.36,-10.1601 91.05,-4.16 -4.18,50.781 -57.96,58.641 -95.8,74.891 -28.02,12.007 -123.36,53.699 -124.59,77.449 102.17,-14.332 157.5,-24.492 193.66,-32.699 60.64,-13.801 136.13,-35.051 240.66,-46.672 13.83,-1.532 89.82,-11.508 90.59,2.34 2.32,41.793 -66.31,38.531 -109.16,44.101 -51.96,6.781 -166.1,35.192 -239.26,60.418 -212.72,73.352 -255.51,167.223 -325.18,276.402 -141.07,221 -181.62,631.989 -177.3,893.989 6.01,371.26 -16.23,794.86 161.36,1131.58 67,127.06 413.89,584.45 635.34,737.75 333.57,230.95 529.16,308.25 691.89,346.46 189.02,44.4 381.41,72.43 570.78,115.12 342.62,77.25 669.9,182.29 940.45,414.2 C 6812.49,3874.6 6277.23,3849.65 5810,3772.8 c -389.49,-64.06 -762.75,-169.47 -1086.79,-388.31 -57.46,-38.82 -281.9,-196.34 -331.86,-245.31 15.98,28.55 19.26,69.89 31.55,102.33 17.28,45.68 37.38,96.6 59.47,140.2 39.37,77.62 103.24,163.27 164.28,224.74 121.95,122.8 225.23,221.17 390.23,334.47 303.98,208.75 646.29,386.02 979.06,541.89 130.59,61.16 272.11,101.89 405.33,157.79 171.88,72.08 340.02,153.55 501.51,246.65 249.65,143.92 545.29,338.48 630.9,630.62 -123.19,-369.49 -573.73,-557.37 -902,-698.13 262.33,185.35 427.47,440.67 566.45,725.47"
         style="fill:#617831;fill-opacity:1;fill-rule:nonzero;stroke:none"
         id="path278" />
      <path
         d="m 1811.24,7051.25 c 41.53,84.59 -9.6,183.61 -105.32,236.52 -95.67,52.93 -208.03,20.65 -304.07,-14.21 -0.04,0.03 64.59,-205.12 158,-262.39 89.33,-54.74 189,-58.79 251.39,40.08"
         style="fill:#b8d77e;fill-opacity:1;fill-rule:nonzero;stroke:none"
         id="path280" />
      <path
         d="m 1771.45,7059.01 c 14.1,-8.54 28.42,-16.74 42,-24.18 13.47,-7.66 27.12,-12.86 38.54,-17.91 23.03,-9.67 38.88,-14.84 39.96,-12.56 1.07,2.28 -12.78,11.43 -34.4,23.19 -10.63,6.11 -23.8,11.91 -36.98,19.62 -13.36,7.47 -27.76,15.15 -42.35,22.51 -15.22,7.24 -27.26,14.73 -38.56,20.91 -11.15,6.29 -21.51,12.08 -31.52,17.73 -20.11,11.7 -39.62,24.86 -68.75,44 28.16,-20.32 46.57,-34.94 65.52,-48.47 9.45,-6.5 19.22,-13.27 29.73,-20.54 10.72,-7.22 22.13,-15.81 36.81,-24.3"
         style="fill:#b8d77e;fill-opacity:1;fill-rule:evenodd;stroke:none"
         id="path282" />
      <path
         d="m 6397.05,3730.79 c 55.45,89.92 179.89,100.53 287.24,41.35 107.35,-59.14 143.82,-185.01 168.11,-296.94 0.05,-0.02 -233.14,-61.19 -343.25,-6.79 -105.29,52.03 -168.63,144.17 -112.1,262.38"
         style="fill:#b8d77e;fill-opacity:1;fill-rule:nonzero;stroke:none"
         id="path284" />
      <path
         d="m 6390.91,3726.73 c -16.02,9.25 -31.8,18.87 -46.44,28.21 -14.81,9.09 -27.28,19.68 -38.39,28.18 -21.97,17.38 -35.59,30.17 -33.91,32.45 1.63,2.28 18.1,-6.38 41.33,-21.27 11.74,-7.12 24.54,-16.93 39.24,-25.72 14.56,-9.08 29.88,-19.07 44.99,-29.45 15.32,-11.04 29.18,-18.8 41.36,-26.58 12.18,-7.56 23.46,-14.6 34.43,-21.38 22.36,-13.44 45.82,-25.5 80.33,-43.78 -35.14,16.68 -59.47,26.86 -82.98,38.18 -11.49,5.77 -23.39,11.7 -36.24,18.11 -12.85,6.63 -27.47,13.21 -43.72,23.05"
         style="fill:#617831;fill-opacity:1;fill-rule:evenodd;stroke:none"
         id="path286" />
      <path
         d="m 3502.19,6712.05 c 49.48,59.44 26.1,146.4 -42.11,204.85 -68.2,58.42 -165.73,52.62 -250.45,41.92 -0.02,0.03 14.76,-172.96 80.3,-234.43 62.68,-58.75 143.16,-79.37 212.26,-12.34"
         style="fill:#b8d77e;fill-opacity:1;fill-rule:nonzero;stroke:none"
         id="path288" />
      <path
         d="m 3520.69,6609.98 c 6.73,-17.38 11.23,-29.54 14.98,-28.97 3.25,0.4 4.85,14.32 1.18,34.29 -4.25,19.61 -13.76,44.76 -28.47,66.43 -29.86,44.67 -44.21,58.34 -78.67,101.09 30.89,-45.19 40.41,-62.55 63.05,-109.66 11.04,-22.84 20.57,-45.85 27.93,-63.18"
         style="fill:#617831;fill-opacity:1;fill-rule:evenodd;stroke:none"
         id="path290" />
      <path
         d="m 2413.85,7399.06 0.02,0.01 h -0.02 c -0.21,0 -0.21,-0.01 0,-0.01"
         style="fill:#617831;fill-opacity:1;fill-rule:nonzero;stroke:none"
         id="path292" />
      <path
         d="m 2413.85,7399.06 0.02,0.01 h -0.02 c -0.21,0 -0.21,-0.01 0,-0.01"
         style="fill:#617831;fill-opacity:1;fill-rule:nonzero;stroke:none"
         id="path294" />
      <path
         d="m 2619.59,6879.01 c 132.21,53.28 225.53,182.76 225.53,334.04 0,198.82 -161.17,360 -360,360 -198.82,0 -359.99,-161.18 -359.99,-360 0,-198.82 161.17,-360 359.99,-360 13.07,0 25.98,0.7 38.67,2.05 -0.02,0.02 -0.02,0.03 -0.03,0.04 33.55,3.58 65.68,11.82 95.83,23.97 0,-0.04 0,-0.07 0,-0.1"
         style="fill:#166534;fill-opacity:1;fill-rule:nonzero;stroke:none"
         id="path296" />
      <path
         d="m 2772.18,7048.29 c -7.1,17.98 -35.03,28.24 -53.68,33.72 -23.51,6.94 -50.29,16.58 -72.24,28.22 -14.41,7.64 -92.19,41.97 -97.89,54.21 -4.3,9.25 -4.75,27.44 -1.14,39.08 2.83,9.15 9.97,15.92 12.48,25.16 1.72,6.34 8.01,26.5 8.01,26.5 0,0 4.37,-0.51 7.28,8.5 1.63,5.03 3.05,10.06 5.92,14.59 5.42,8.54 10.32,14.75 12.02,25.18 1.09,6.58 2.74,21.93 -4.32,26.59 -4.34,2.88 -7.74,1.55 -11.1,-0.77 0.79,2.84 3.49,19.18 4.93,30.84 0.64,5.25 0.19,10.7 0.02,16 -0.11,3.28 1.36,14.21 -0.47,16.68 3.02,-4.06 7.23,-7.29 10.06,-11.85 -1.35,14.92 -7.04,26.47 -17.64,37.31 0.39,1.56 2.8,0.6 2.88,0.91 -1.16,1.83 -4.04,2.94 -4.69,4.98 0.32,1.37 3.85,4.16 4.72,5.4 -0.65,0.54 -4.77,-2.02 -5.82,-1.88 2.46,3.82 4.71,8.76 7.05,12.33 -11.74,-17.85 -22.2,-2.9 -29.26,9.42 -3.56,6.22 -8.05,10.28 -12.71,15.53 -1.68,1.89 -3.18,3.99 -4.87,5.89 -0.11,-2.61 0.63,-5.09 0.75,-7.64 -3.01,3.44 -8.12,3.91 -11.68,6.53 1.46,-2.57 4.04,-4.13 5.72,-6.51 -4.07,0.65 -8.3,0.2 -12.28,1.4 -9.91,3.03 -22.27,7.41 -32.68,7.88 -8.24,0.37 -16.44,0.02 -24.77,0.75 2.09,-1.08 5.35,-2.92 7.35,-3.91 0.07,0.07 -4.04,0.06 -7.09,-2.08 1.54,0.07 3.9,-0.49 3.05,-1.33 -2.96,-2.94 -14.93,-5.74 -18.07,-5.8 -2.86,-0.06 -5.54,0.81 -8.41,0.35 -3.99,-0.66 -7.78,-3.5 -11.42,-5.18 2.38,0.14 4.77,0.85 7.11,0.31 -3.8,-3.11 -10.36,-4.92 -15.22,-5.33 2,-0.07 4.69,-0.33 6.88,-0.62 -12.95,-4.97 -27.65,-3.65 -39.73,-11.42 4.44,0 9.49,0.64 13.54,-0.9 -8.56,-1.81 -17.09,-11.03 -21.99,-18.02 2.03,1.33 4.22,2.34 6.58,2.74 -0.54,-2.67 -6,-4.86 -6.04,-6.8 -0.02,-0.72 3.95,0.34 2.9,-0.95 -1.68,-2.04 -3.34,-3.96 -4.65,-6.29 0.27,0.5 4.7,-0.09 5.51,-0.19 -3.97,-8.99 -4.48,-18.11 -3.77,-27.92 1.3,2.07 2.53,4.58 3.81,6.68 -0.52,-3.85 -1.02,-19.76 1.09,-23.23 0.18,0.99 0.55,1.98 1.28,2.69 0.19,-0.77 0.15,-5.8 0.86,-8.34 0.17,1.32 0.73,1.25 1.07,1.65 1.29,-6.98 6.77,-23.28 8.3,-28.72 1.02,-3.54 1.67,-5.93 1.93,-7.99 -16.27,12.65 -15.22,-14.56 -14.43,-20.47 1.72,-12.81 6.56,-24.83 13.1,-35.94 2.23,-3.8 5.48,-9.74 7.78,-13.38 3.1,-4.9 5.94,-2.32 5.94,-2.32 0,0 4.36,-13.38 5.05,-16.97 1.48,-7.9 11.03,-22.09 12.28,-30.04 2.59,-16.66 3.87,-23.68 -3.03,-39.28 -6.23,-14.12 -92.74,-52.6 -112.66,-61.58 -23.71,-10.7 -66.06,-13.08 -86.7,-28.21 -18.19,-13.34 -27.53,-41.93 -27.1,-70.1 65.27,-91.54 172.25,-151.3 293.24,-151.3 13.07,0 25.98,0.7 38.67,2.05 -0.02,0.02 -0.02,0.03 -0.03,0.04 33.55,3.58 65.68,11.82 95.83,23.97 0,-0.04 0,-0.07 0,-0.1 65.61,26.44 121.59,71.67 161.39,128.99 -0.37,11.68 -2.89,25.34 -8.8,40.29"
         style="fill:#b8d77e;fill-opacity:1;fill-rule:nonzero;stroke:none"
         id="path298" />
      <path
         d="m 5941.64,2879.06 c 0.25,0 0.5,0 0.77,0 0.23,0 0.48,0 0.72,0 0.05,0 0.12,0 0.18,0 0.22,0 0.44,0 0.68,0.01 0.01,0 0.01,0 0.02,0 33.45,0.15 65.77,4.95 96.48,13.64 0,-0.03 0,-0.08 0.01,-0.12 151.16,42.72 261.91,181.66 261.91,346.46 0,198.83 -161.17,360.02 -360,360.02 -198.81,0 -360,-161.19 -360,-360.02 0,-181.29 134.02,-331.3 308.42,-356.32 -0.01,0.02 -0.02,0.06 -0.02,0.08 16.57,-2.38 33.49,-3.69 50.72,-3.75 0.03,0 0.08,0 0.11,0"
         style="fill:#166534;fill-opacity:1;fill-rule:nonzero;stroke:none"
         id="path300" />
      <path
         d="m 6217.77,3064.08 c -18.62,18.51 -32.65,27.95 -57.37,34.87 -32.05,8.98 -63.39,19.09 -93.09,34.24 -13.56,6.92 -30.65,13.31 -42.43,23.1 -11.07,9.21 -15.11,38.38 -8.16,50.79 4.41,7.86 10.01,13.88 12.47,22.73 2.58,9.32 1.88,19.22 4.46,28.56 15.54,-4.67 13.84,35.07 16.11,43.24 3.17,11.25 10.71,28.47 8.73,40.36 -1.46,8.82 -11.76,6.98 -11.76,6.98 0,0 6.09,29.16 3.33,41.25 -4.38,19.28 -15.91,27.64 -6.11,46.99 -2.28,0.68 -4.32,0.38 -6.74,0.43 1.5,3.27 -21.73,26.59 -36.26,22.37 4.38,1.27 -7.27,15.43 -8.89,16.59 -4.95,3.62 -11.94,6.36 -17.52,8.97 -29.55,13.84 -54.15,10.1 -84.72,1.68 -5.94,-1.66 -10.33,-3.43 -12.53,-3.66 2.75,-2.2 -7.32,-3.86 -12.51,-5.71 -10,-3.54 -20.08,-2.95 -29.85,1.64 8,-3.77 16.56,-6.76 25.2,-9.18 -7.01,-0.96 -13.69,-2.14 -20.89,-2.01 4.22,-2.81 5.18,-7.55 8.01,-10.59 -6.97,-2.17 -11.96,-6.71 -16.17,-10.97 3.39,1.03 8.16,0.74 11.64,1.5 -8.48,-1.87 -23.79,-52.37 -21.45,-74.12 0.51,0.76 0.92,1.66 1.4,2.46 -0.17,-4.08 -1.42,-8.08 -1.5,-12.23 0.77,0.47 1.61,1.04 2.28,1.37 -0.46,-4.09 -0.48,-8.55 0.14,-12.72 0.67,-0.28 1.51,0.07 2.22,-0.12 -0.04,-4.23 1.94,-7.49 1.53,-11.56 -3.18,1.67 -6.99,1.78 -9.97,-0.33 -14.85,-10.54 10.02,-47.34 10.88,-61.46 0.49,-7.79 1.41,-14.21 4.96,-21.52 1.4,-2.94 7.64,-9.31 12.21,-3.05 0.16,-15.76 0.83,-36.06 11.34,-49.02 6.28,-7.75 18.47,-11.04 18.97,-22.1 0.42,-9.18 3.65,-23.64 -8.47,-34.75 -36.45,-33.34 -150.65,-60.49 -175.41,-77.44 -9.57,-6.56 -16.8,-15 -22.61,-24.42 -5.06,-8.22 -7.73,-18.12 -9.32,-28.6 64.85,-85.81 167.75,-141.29 283.6,-141.29 16.07,0 31.9,1.07 47.43,3.14 -0.15,0.01 -0.3,0.03 -0.43,0.05 50.41,6.66 97.51,23.83 138.96,49.36 0,0 0.04,-0.02 0.06,-0.03 42.75,26.31 79.38,61.5 107.63,102.88 -6.25,13.72 -13.06,25 -19.4,31.33"
         style="fill:#b8d77e;fill-opacity:1;fill-rule:nonzero;stroke:none"
         id="path302" />
      <path
         d="m 1440.19,3826.23 c 0,198.82 -161.18,359.99 -360,359.99 -198.823,0 -360.002,-161.17 -360.002,-359.99 0,-173.35 122.527,-318.1 285.722,-352.33 0,0.01 -0.01,0.03 -0.01,0.04 23.76,-4.99 48.36,-7.66 73.58,-7.71 0.04,0 0.08,0 0.12,0 0.19,0 0.39,0 0.59,0 15.14,0 30.03,1.04 44.68,2.86 -0.01,-0.04 -0.02,-0.08 -0.03,-0.12 177.76,21.99 315.35,173.56 315.35,357.26"
         style="fill:#166534;fill-opacity:1;fill-rule:nonzero;stroke:none"
         id="path304" />
      <path
         d="m 1363.31,3604.02 c -1.65,6.96 -3.96,13.53 -7.47,19.23 -5.8,9.42 -13.03,17.85 -22.61,24.4 -24.73,16.95 -138.84,44.08 -175.23,77.38 -12.14,11.1 -8.89,25.54 -8.46,34.72 0.48,11.06 12.67,14.34 18.93,22.08 10.5,12.96 11.17,33.23 11.34,48.97 4.57,-6.25 10.8,0.12 12.2,3.05 3.55,7.31 4.45,13.73 4.92,21.51 0.87,14.1 25.73,50.88 10.92,61.4 -2.98,2.11 -6.79,2.01 -9.99,0.33 -0.41,4.07 1.57,7.33 1.55,11.55 0.68,0.19 1.55,-0.16 2.2,0.14 0.62,4.16 0.59,8.6 0.16,12.69 0.65,-0.33 1.48,-0.88 2.27,-1.37 -0.09,4.15 -1.34,8.14 -1.49,12.22 0.45,-0.8 0.88,-1.69 1.38,-2.45 2.35,21.72 -12.97,72.19 -21.42,74.06 3.49,-0.76 8.22,-0.48 11.64,-1.51 -4.22,4.27 -9.23,8.8 -16.16,10.97 2.79,3.02 3.76,7.77 8.01,10.57 -7.2,-0.13 -13.9,1.06 -20.88,2.01 8.62,2.44 17.18,5.4 25.18,9.17 -9.76,-4.59 -19.83,-5.16 -29.83,-1.64 -5.18,1.87 -15.24,3.52 -12.53,5.72 -2.19,0.22 -6.55,2 -12.51,3.65 -30.52,8.41 -55.11,12.16 -84.63,-1.67 -5.59,-2.62 -12.58,-5.35 -17.54,-8.97 -1.57,-1.16 -13.21,-15.31 -8.87,-16.58 -14.49,4.22 -37.718,-19.08 -36.199,-22.34 -2.449,-0.06 -4.468,0.25 -6.746,-0.43 9.778,-19.34 -1.738,-27.7 -6.093,-46.95 -2.754,-12.09 3.332,-41.22 3.332,-41.22 0,0 -10.305,1.83 -11.77,-6.98 -1.973,-11.87 5.547,-29.09 8.699,-40.32 2.27,-8.16 0.586,-47.88 16.117,-43.2 2.594,-9.34 1.875,-19.22 4.461,-28.54 2.454,-8.85 8.059,-14.86 12.469,-22.71 6.96,-12.4 2.88,-41.55 -8.18,-50.75 -11.742,-9.78 -28.808,-16.17 -42.375,-23.08 -29.66,-15.12 -60.996,-25.24 -92.988,-34.2 -24.726,-6.92 -38.722,-16.35 -57.336,-34.85 -5.711,-5.68 -11.758,-15.48 -17.437,-27.32 65.554,-88.87 170.945,-146.53 289.846,-146.53 114.94,0 217.21,53.93 283.12,137.79"
         style="fill:#b8d77e;fill-opacity:1;fill-rule:nonzero;stroke:none"
         id="path306" />
      <path
         d="m 359.988,5410.85 c 198.828,0 360.012,161.18 360.012,360 0,198.82 -161.184,360 -360.012,360 C 161.184,6130.85 0,5969.67 0,5770.85 c 0,-120.14 58.8398,-226.52 149.27,-291.93 0.007,0.04 0.007,0.08 0.015,0.12 34.731,-25.13 74.106,-44.2 116.606,-55.68 -0.024,-0.02 -0.039,-0.05 -0.051,-0.07 30,-8.12 61.582,-12.44 94.148,-12.44"
         style="fill:#166534;fill-opacity:1;fill-rule:nonzero;stroke:none"
         id="path308" />
      <path
         d="m 625.129,5527.37 c -0.246,6.8 -0.688,13.77 -1.77,21.29 -2.414,16.42 -21.113,36.71 -41.125,44.49 -19.129,7.43 -61.375,12.18 -72.527,16.16 -18.027,6.45 -79.269,34.33 -85.945,45.25 -9.621,15.64 -13.625,38.56 -7.617,55.69 2.312,6.62 6.543,12.34 10.32,17.05 3.973,-1.8 7.461,-4.29 8.816,-7.54 2.563,-6.2 -2.859,-14.86 -9.539,-15.61 4.719,-4.32 25.11,-6.26 37.735,-3.09 28.347,7.16 37.492,32.78 41.953,49.89 10,38.43 -22.383,94.21 -31.953,130.73 -8.973,34.22 -10.743,71.61 -37.801,96.41 -13.625,12.46 -36.535,28.1 -54.453,13.91 -58.45,39.72 -105.586,-2.81 -135.469,-52.39 -30.024,-49.84 -46.899,-91.84 -57.082,-150.18 -7.332,-42.09 -11.953,-68.65 26.433,-87.11 16.165,-7.76 56.536,-17.52 72.415,4.21 -10.032,-5.61 -18.25,-1.38 -16.805,9.81 0.789,6.2 5.183,10.25 11.695,12.9 0.207,-0.29 0.403,-0.62 0.61,-0.93 4.48,-6.59 8.191,-9 10.32,-17.02 3.547,-13.29 1.387,-42.06 -4.61,-54.44 -5.656,-11.68 -22.335,-20.71 -33.054,-26.04 -18.899,-9.41 -35.61,-17.06 -55.586,-23.58 -19.067,-6.2 -35.063,-8.51 -52.902,-12.72 -23.235,-5.48 -34.141,-15.87 -44.083,-36.58 -4.687,-9.79 -8.0659,-19.02 -10.5659,-27.85 17.0629,-18.95 36.0239,-36.18 56.7309,-51.16 0.007,0.04 0.007,0.08 0.015,0.12 34.731,-25.13 74.106,-44.2 116.606,-55.68 -0.024,-0.02 -0.039,-0.05 -0.051,-0.07 30,-8.12 61.582,-12.44 94.148,-12.44 104.934,0 199.336,44.91 265.141,116.52"
         style="fill:#b8d77e;fill-opacity:1;fill-rule:nonzero;stroke:none"
         id="path310" />
      <path
         d="m 5496.24,7907.59 c 198.81,0 360,161.18 360,360 0,198.81 -161.19,359.99 -360,359.99 -198.82,0 -360,-161.18 -360,-359.99 0,-134.2 73.43,-251.25 182.32,-313.17 0,0.04 0,0.07 0,0.12 40.44,-23.01 85.75,-38.38 134.01,-44.22 -0.01,-0.03 -0.04,-0.07 -0.05,-0.1 14.33,-1.74 28.93,-2.63 43.72,-2.63"
         style="fill:#166534;fill-opacity:1;fill-rule:nonzero;stroke:none"
         id="path312" />
      <path
         d="m 5768.92,8032.71 c -0.94,9.96 -2.97,19.92 -6.22,29.22 -7.3,20.8 -20.38,38.37 -39.04,45.62 -12.08,4.7 -33.32,8.33 -50.26,11.37 15.97,7.73 35.92,21.79 35.77,36.7 -91.18,-13.95 -65.11,106.22 -68.98,162.89 -5.96,87.12 -28.95,156.06 -56.23,181.04 -13.72,12.55 -36.8,28.31 -54.83,14.01 -46.83,31.82 -92.9,7.78 -123.35,-31.94 -34.86,-45.42 -32.71,-97.23 -34.66,-151.55 -1.46,-40.36 17.67,-162.72 -41.4,-173.59 -19.31,-3.55 -35.75,4.82 -49.21,16.15 1.52,-37.25 26.98,-47.06 49.19,-53.61 -15.38,-4.31 -29.16,-6.55 -44.24,-10.11 -38.92,-9.17 -59.78,-45.09 -58.67,-79.98 26.22,-29.57 57.18,-54.84 91.77,-74.51 0,0.04 0,0.07 0,0.12 40.44,-23.01 85.75,-38.38 134.01,-44.22 -0.01,-0.03 -0.04,-0.07 -0.05,-0.1 14.33,-1.74 28.93,-2.63 43.72,-2.63 109.03,0 206.67,48.55 272.68,125.12"
         style="fill:#b8d77e;fill-opacity:1;fill-rule:nonzero;stroke:none"
         id="path314" />
      <path
         d="m 4406.95,6400.32 c -198.82,0 -360,-161.17 -360,-360.01 0,-198.81 161.18,-359.99 360,-359.99 194.3,0 352.66,153.92 359.75,346.5 -0.03,0 -0.05,-0.01 -0.09,-0.01 0.17,4.49 0.34,8.97 0.34,13.5 0,0.19 0,0.37 0,0.55 -0.03,22.58 -2.24,44.65 -6.26,66.09 -1.61,10.67 -5.77,23.78 -8,33.74 0.04,-0.01 0.06,-0.03 0.1,-0.04 -43.45,150.01 -181.86,259.67 -345.84,259.67"
         style="fill:#166534;fill-opacity:1;fill-rule:nonzero;stroke:none"
         id="path316" />
      <path
         d="m 4401.06,5680.89 c 114.2,-2 216.86,49.45 284.24,131.25 -0.67,4.83 -1.37,9.66 -1.98,14.5 -2.25,17.43 -21.71,39.28 -42.77,47.9 -20.12,8.24 -64.76,14.04 -76.53,18.46 -19.02,7.14 -83.35,37.85 -90.27,49.52 -7.31,12.43 -11.28,29 -10.16,44.1 4.69,0.56 9.74,1.99 15.34,4.74 5.35,-16.97 44.58,-21.06 54.26,-19.75 11.52,1.55 23.44,5.7 31.98,13.61 5.45,5.04 17.49,26.35 4.87,36.74 22.04,0.2 30.76,41.68 6.26,43.47 26.91,8.24 14.39,53 -0.03,48.63 0,0 7.22,32.13 -23.25,24.12 11.41,37.17 -51.07,211.82 -109.69,167.03 -69.59,49.09 -172.12,-35.13 -180.67,-107.59 -1.47,-12.34 -4.37,-33.65 0.33,-45.24 -9.54,2.12 -17.25,-1.85 -22.51,-9.44 -3.14,-4.52 -5.86,-12.17 2.2,-19.47 -28.14,-8.11 -24,-50.74 6.27,-45.8 -26.71,-4.35 -38.02,-64.17 -0.51,-65.38 3.86,-19.93 17.38,-31.53 39.99,-25.78 12.85,-10.78 33.37,-7.68 48.11,-2.4 0.5,0.18 1.01,0.35 1.54,0.54 -0.51,-13.67 -3.17,-28.95 -7.33,-37.22 -6.2,-12.24 -24.06,-21.51 -35.5,-26.99 -20.22,-9.61 -38.05,-17.38 -59.34,-23.92 -20.32,-6.25 -37.3,-8.38 -56.31,-12.54 -24.69,-5.36 -36.45,-16.17 -47.36,-37.93 -3.12,-6.23 -6.23,-16.45 -8.61,-26.77 64.59,-82.58 164.45,-136.43 277.43,-138.39"
         style="fill:#b8d77e;fill-opacity:1;fill-rule:nonzero;stroke:none"
         id="path318" />
      <path
         d="m 5836.65,6726.23 c 0,198.82 -161.18,359.99 -360,359.99 -198.82,0 -360,-161.17 -360,-359.99 0,-173.35 122.52,-318.1 285.72,-352.33 0,0.01 -0.01,0.03 -0.01,0.04 23.76,-4.99 48.36,-7.66 73.58,-7.71 0.04,0 0.08,0 0.12,0 0.19,0 0.39,0 0.59,0 15.14,0 30.03,1.04 44.68,2.86 -0.01,-0.04 -0.02,-0.08 -0.03,-0.12 177.76,21.99 315.35,173.56 315.35,357.26"
         style="fill:#617831;fill-opacity:1;fill-rule:nonzero;stroke:none"
         id="path320" />
      <path
         d="m 5836.65,6726.23 c 0,198.82 -161.18,359.99 -360,359.99 -198.82,0 -360,-161.17 -360,-359.99 0,-198.82 161.18,-360 360,-360 198.82,0 360,161.18 360,360"
         style="fill:#166534;fill-opacity:1;fill-rule:nonzero;stroke:none"
         id="path322" />
      <path
         d="m 5759.77,6504.02 c -1.65,6.96 -3.96,13.53 -7.47,19.23 -5.8,9.42 -13.03,17.85 -22.61,24.4 -24.73,16.95 -138.84,44.08 -175.23,77.38 -12.14,11.1 -8.89,25.54 -8.46,34.72 0.48,11.06 12.67,14.34 18.93,22.08 10.5,12.96 11.17,33.23 11.34,48.97 4.56,-6.25 10.8,0.12 12.2,3.05 3.55,7.31 4.45,13.73 4.92,21.51 0.87,14.1 25.73,50.88 10.92,61.4 -2.98,2.11 -6.79,2.01 -9.99,0.33 -0.41,4.07 1.57,7.33 1.55,11.55 0.68,0.19 1.55,-0.16 2.2,0.14 0.62,4.16 0.59,8.6 0.16,12.69 0.65,-0.33 1.48,-0.88 2.27,-1.37 -0.09,4.15 -1.34,8.14 -1.49,12.22 0.45,-0.8 0.88,-1.69 1.38,-2.45 2.35,21.72 -12.97,72.19 -21.42,74.06 3.49,-0.76 8.22,-0.48 11.64,-1.51 -4.22,4.27 -9.23,8.8 -16.16,10.97 2.79,3.02 3.76,7.77 8.01,10.57 -7.2,-0.13 -13.9,1.06 -20.88,2.01 8.62,2.44 17.18,5.4 25.18,9.17 -9.76,-4.59 -19.83,-5.16 -29.83,-1.64 -5.18,1.87 -15.24,3.52 -12.53,5.72 -2.19,0.22 -6.55,2 -12.51,3.65 -30.52,8.41 -55.11,12.16 -84.63,-1.67 -5.59,-2.62 -12.58,-5.35 -17.54,-8.97 -1.57,-1.16 -13.21,-15.31 -8.87,-16.58 -14.49,4.22 -37.72,-19.08 -36.2,-22.34 -2.45,-0.06 -4.47,0.25 -6.74,-0.43 9.77,-19.34 -1.74,-27.7 -6.1,-46.95 -2.75,-12.09 3.33,-41.22 3.33,-41.22 0,0 -10.3,1.83 -11.77,-6.98 -1.97,-11.87 5.55,-29.09 8.71,-40.32 2.26,-8.16 0.58,-47.88 16.11,-43.2 2.6,-9.34 1.87,-19.22 4.46,-28.54 2.45,-8.85 8.06,-14.86 12.47,-22.71 6.96,-12.4 2.88,-41.55 -8.18,-50.75 -11.74,-9.78 -28.81,-16.17 -42.37,-23.08 -29.66,-15.12 -61,-25.24 -92.99,-34.2 -24.73,-6.92 -38.72,-16.35 -57.34,-34.85 -5.71,-5.68 -11.75,-15.48 -17.44,-27.32 65.56,-88.87 170.95,-146.53 289.85,-146.53 114.94,0 217.21,53.93 283.12,137.79"
         style="fill:#b8d77e;fill-opacity:1;fill-rule:nonzero;stroke:none"
         id="path324" />
      <path
         d="m 2405.67,5458.62 c 0.25,0 0.51,0 0.76,0 0.24,0 0.49,0 0.72,0 0.06,0 0.12,0 0.18,0 0.23,0 0.45,0 0.68,0.01 0.02,0 0.02,0 0.02,0 33.46,0.15 65.78,4.95 96.49,13.64 0,-0.03 0,-0.08 0.02,-0.11 151.15,42.71 261.89,181.66 261.89,346.46 0,198.82 -161.17,360.01 -360,360.01 -198.8,0 -359.99,-161.19 -359.99,-360.01 0,-181.3 134.02,-331.31 308.41,-356.33 -0.01,0.02 -0.02,0.06 -0.02,0.08 16.58,-2.38 33.5,-3.69 50.72,-3.75 0.04,0 0.08,0 0.12,0"
         style="fill:#166534;fill-opacity:1;fill-rule:nonzero;stroke:none"
         id="path326" />
      <path
         d="m 2681.8,5643.64 c -18.63,18.52 -32.65,27.95 -57.38,34.87 -32.03,8.98 -63.38,19.09 -93.09,34.24 -13.55,6.92 -30.64,13.31 -42.42,23.1 -11.07,9.22 -15.12,38.39 -8.16,50.79 4.41,7.86 10.02,13.88 12.48,22.74 2.58,9.31 1.87,19.21 4.45,28.55 15.55,-4.68 13.83,35.07 16.11,43.24 3.17,11.24 10.71,28.48 8.73,40.36 -1.46,8.81 -11.75,6.98 -11.75,6.98 0,0 6.07,29.16 3.32,41.26 -4.38,19.27 -15.92,27.63 -6.12,46.99 -2.26,0.67 -4.31,0.36 -6.73,0.43 1.5,3.26 -21.72,26.58 -36.25,22.36 4.37,1.27 -7.29,15.43 -8.91,16.59 -4.94,3.62 -11.93,6.35 -17.52,8.97 -29.55,13.84 -54.15,10.1 -84.71,1.68 -5.94,-1.66 -10.33,-3.44 -12.53,-3.66 2.75,-2.2 -7.33,-3.85 -12.51,-5.72 -10,-3.53 -20.08,-2.94 -29.85,1.65 8,-3.77 16.56,-6.75 25.2,-9.18 -7.01,-0.96 -13.69,-2.14 -20.89,-2.01 4.22,-2.82 5.18,-7.55 8.01,-10.58 -6.97,-2.18 -11.96,-6.72 -16.17,-10.98 3.39,1.03 8.16,0.74 11.64,1.5 -8.48,-1.87 -23.79,-52.37 -21.45,-74.12 0.51,0.77 0.92,1.65 1.4,2.45 -0.17,-4.08 -1.43,-8.07 -1.5,-12.21 0.77,0.47 1.61,1.03 2.28,1.36 -0.46,-4.09 -0.48,-8.54 0.14,-12.71 0.67,-0.29 1.51,0.06 2.21,-0.13 -0.04,-4.23 1.95,-7.49 1.54,-11.56 -3.19,1.68 -6.99,1.79 -9.97,-0.32 -14.85,-10.55 10.02,-47.35 10.88,-61.48 0.48,-7.77 1.41,-14.2 4.96,-21.51 1.4,-2.93 7.64,-9.31 12.2,-3.06 0.17,-15.76 0.84,-36.04 11.35,-49.01 6.28,-7.75 18.47,-11.04 18.97,-22.09 0.42,-9.18 3.65,-23.65 -8.47,-34.76 -36.46,-33.34 -150.66,-60.49 -175.41,-77.44 -9.57,-6.55 -16.8,-15 -22.61,-24.42 -5.06,-8.22 -7.73,-18.12 -9.32,-28.6 64.85,-85.81 167.75,-141.29 283.59,-141.29 16.08,0 31.9,1.07 47.45,3.14 -0.16,0.02 -0.32,0.03 -0.43,0.05 50.41,6.66 97.5,23.83 138.94,49.36 0,0 0.04,-0.02 0.06,-0.03 42.75,26.31 79.39,61.5 107.64,102.88 -6.25,13.72 -13.07,25 -19.4,31.33"
         style="fill:#b8d77e;fill-opacity:1;fill-rule:nonzero;stroke:none"
         id="path328" />
      <path
         d="m 6266.24,5537.59 c 198.81,0 360,161.18 360,359.99 0,198.82 -161.19,360 -360,360 -198.82,0 -360,-161.18 -360,-360 0,-134.19 73.43,-251.25 182.32,-313.16 0,0.05 0,0.07 0,0.11 40.44,-23 85.75,-38.36 134.01,-44.21 -0.01,-0.03 -0.04,-0.07 -0.05,-0.11 14.33,-1.73 28.93,-2.62 43.72,-2.62"
         style="fill:#166534;fill-opacity:1;fill-rule:nonzero;stroke:none"
         id="path330" />
      <path
         d="m 6538.92,5662.71 c -0.94,9.96 -2.97,19.91 -6.22,29.22 -7.3,20.8 -20.38,38.37 -39.04,45.62 -12.08,4.7 -33.32,8.33 -50.26,11.37 15.97,7.73 35.92,21.79 35.77,36.7 -91.18,-13.95 -65.11,106.22 -68.98,162.89 -5.96,87.12 -28.95,156.06 -56.23,181.04 -13.72,12.55 -36.8,28.3 -54.83,14.01 -46.83,31.82 -92.9,7.78 -123.35,-31.94 -34.86,-45.42 -32.71,-97.23 -34.66,-151.54 -1.46,-40.37 17.67,-162.73 -41.4,-173.6 -19.31,-3.55 -35.75,4.82 -49.21,16.14 1.52,-37.24 26.98,-47.05 49.19,-53.59 -15.38,-4.32 -29.16,-6.56 -44.24,-10.12 -38.92,-9.17 -59.78,-45.09 -58.67,-79.98 26.22,-29.58 57.18,-54.84 91.77,-74.51 0,0.05 0,0.07 0,0.11 40.44,-23 85.75,-38.36 134.01,-44.21 -0.01,-0.03 -0.04,-0.07 -0.05,-0.11 14.33,-1.73 28.93,-2.62 43.72,-2.62 109.03,0 206.67,48.54 272.68,125.12"
         style="fill:#b8d77e;fill-opacity:1;fill-rule:nonzero;stroke:none"
         id="path332" />
      <path
         d="m 3851.94,4024.23 c 198.83,0 360.01,161.18 360.01,360 0,198.81 -161.18,360 -360.01,360 -198.81,0 -359.99,-161.19 -359.99,-360 0,-120.14 58.84,-226.52 149.27,-291.94 0.01,0.04 0.01,0.08 0.02,0.12 34.72,-25.12 74.1,-44.2 116.6,-55.68 -0.02,-0.02 -0.04,-0.04 -0.05,-0.06 30,-8.13 61.58,-12.44 94.15,-12.44"
         style="fill:#166534;fill-opacity:1;fill-rule:nonzero;stroke:none"
         id="path334" />
      <path
         d="m 4117.07,4140.75 c -0.24,6.8 -0.69,13.77 -1.76,21.29 -2.42,16.41 -21.12,36.7 -41.14,44.49 -19.12,7.43 -61.36,12.19 -72.51,16.17 -18.03,6.44 -79.27,34.32 -85.95,45.24 -9.62,15.64 -13.63,38.56 -7.62,55.69 2.32,6.61 6.54,12.33 10.32,17.05 3.98,-1.81 7.46,-4.29 8.82,-7.55 2.56,-6.19 -2.86,-14.84 -9.54,-15.6 4.72,-4.32 25.11,-6.25 37.73,-3.09 28.35,7.17 37.5,32.77 41.96,49.88 10,38.44 -22.38,94.21 -31.96,130.74 -8.97,34.21 -10.74,71.62 -37.8,96.4 -13.62,12.46 -36.53,28.11 -54.45,13.92 -58.45,39.71 -105.59,-2.8 -135.47,-52.39 -30.02,-49.84 -46.89,-91.84 -57.08,-150.19 -7.33,-42.09 -11.95,-68.63 26.44,-87.1 16.16,-7.76 56.53,-17.53 72.41,4.21 -10.03,-5.61 -18.25,-1.39 -16.81,9.81 0.79,6.2 5.19,10.25 11.7,12.9 0.21,-0.29 0.4,-0.62 0.61,-0.93 4.48,-6.59 8.19,-9.01 10.32,-17.02 3.54,-13.3 1.38,-42.07 -4.61,-54.44 -5.66,-11.68 -22.34,-20.71 -33.06,-26.04 -18.89,-9.42 -35.6,-17.05 -55.58,-23.58 -19.07,-6.21 -35.06,-8.51 -52.9,-12.71 -23.24,-5.49 -34.14,-15.88 -44.09,-36.6 -4.68,-9.77 -8.06,-19.01 -10.56,-27.86 17.06,-18.94 36.02,-36.17 56.73,-51.15 0.01,0.04 0.01,0.08 0.02,0.12 34.72,-25.12 74.1,-44.2 116.6,-55.68 -0.02,-0.02 -0.04,-0.04 -0.05,-0.06 30,-8.13 61.58,-12.44 94.15,-12.44 104.93,0 199.33,44.9 265.13,116.52"
         style="fill:#b8d77e;fill-opacity:1;fill-rule:nonzero;stroke:none"
         id="path336" />
      <path
         d="m 966.234,6997.59 c 198.816,0 360.006,161.18 360.006,359.99 0,198.82 -161.19,360 -360.006,360 -198.816,0 -360,-161.18 -360,-360 0,-134.19 73.438,-251.25 182.325,-313.16 0,0.04 0,0.07 0,0.11 40.441,-23 85.754,-38.37 134.015,-44.21 -0.011,-0.03 -0.039,-0.07 -0.051,-0.1 14.329,-1.74 28.926,-2.63 43.711,-2.63"
         style="fill:#166534;fill-opacity:1;fill-rule:nonzero;stroke:none"
         id="path338" />
      <path
         d="m 1238.92,7122.71 c -0.94,9.96 -2.97,19.91 -6.22,29.22 -7.3,20.8 -20.38,38.37 -39.04,45.62 -12.08,4.7 -33.32,8.33 -50.26,11.37 15.97,7.73 35.92,21.79 35.77,36.7 -91.18,-13.95 -65.11,106.22 -68.98,162.89 -5.96,87.12 -28.95,156.06 -56.23,181.04 -13.72,12.55 -36.8,28.3 -54.835,14.01 -46.824,31.82 -92.898,7.78 -123.348,-31.94 -34.855,-45.42 -32.707,-97.23 -34.66,-151.54 -1.453,-40.37 17.676,-162.73 -41.394,-173.6 -19.317,-3.55 -35.754,4.82 -49.211,16.14 1.515,-37.24 26.972,-47.05 49.191,-53.59 -15.383,-4.32 -29.16,-6.56 -44.238,-10.12 -38.926,-9.17 -59.785,-45.09 -58.672,-79.98 26.219,-29.57 57.176,-54.84 91.766,-74.51 0,0.04 0,0.07 0,0.11 40.441,-23 85.754,-38.37 134.015,-44.21 -0.011,-0.03 -0.039,-0.07 -0.051,-0.1 14.329,-1.74 28.926,-2.63 43.711,-2.63 109.036,0 206.676,48.54 272.686,125.12"
         style="fill:#b8d77e;fill-opacity:1;fill-rule:nonzero;stroke:none"
         id="path340" />
      <path
         d="m 3403.79,7956.96 c 0.26,0 0.51,0 0.77,0 0.23,0 0.48,0 0.72,0 0.06,0 0.12,0 0.17,0 0.24,0 0.45,0 0.69,0 0.02,0 0.02,0 0.02,0 33.45,0.15 65.78,4.96 96.48,13.65 0,-0.03 0,-0.08 0.02,-0.12 151.15,42.72 261.9,181.66 261.9,346.46 0,198.83 -161.18,360.01 -360,360.01 -198.81,0 -360,-161.18 -360,-360.01 0,-181.29 134.02,-331.3 308.41,-356.32 0,0.02 -0.02,0.06 -0.02,0.08 16.59,-2.39 33.5,-3.69 50.73,-3.75 0.04,0 0.07,0 0.11,0"
         style="fill:#166534;fill-opacity:1;fill-rule:nonzero;stroke:none"
         id="path342" />
      <path
         d="m 3679.93,8141.98 c -18.64,18.51 -32.66,27.95 -57.39,34.87 -32.03,8.97 -63.37,19.09 -93.08,34.24 -13.56,6.92 -30.65,13.31 -42.42,23.09 -11.08,9.22 -15.12,38.39 -8.17,50.8 4.42,7.86 10.02,13.88 12.48,22.73 2.58,9.32 1.88,19.22 4.46,28.55 15.54,-4.67 13.82,35.08 16.11,43.24 3.16,11.25 10.7,28.48 8.73,40.37 -1.47,8.81 -11.76,6.98 -11.76,6.98 0,0 6.08,29.15 3.32,41.25 -4.37,19.28 -15.92,27.64 -6.11,46.99 -2.27,0.68 -4.32,0.37 -6.74,0.43 1.5,3.27 -21.72,26.59 -36.25,22.36 4.38,1.27 -7.28,15.44 -8.91,16.6 -4.94,3.61 -11.93,6.35 -17.52,8.97 -29.55,13.84 -54.14,10.09 -84.7,1.68 -5.94,-1.66 -10.33,-3.44 -12.54,-3.66 2.75,-2.2 -7.33,-3.86 -12.5,-5.72 -10,-3.53 -20.08,-2.94 -29.86,1.64 8,-3.76 16.56,-6.75 25.21,-9.18 -7.01,-0.95 -13.69,-2.13 -20.9,-2.01 4.22,-2.81 5.18,-7.54 8.01,-10.58 -6.97,-2.17 -11.95,-6.71 -16.17,-10.98 3.4,1.04 8.16,0.75 11.64,1.51 -8.48,-1.87 -23.79,-52.38 -21.45,-74.12 0.51,0.76 0.92,1.65 1.41,2.45 -0.18,-4.08 -1.43,-8.07 -1.5,-12.22 0.76,0.47 1.6,1.04 2.28,1.37 -0.47,-4.09 -0.49,-8.55 0.14,-12.72 0.66,-0.28 1.5,0.07 2.2,-0.12 -0.03,-4.23 1.96,-7.5 1.55,-11.57 -3.19,1.68 -7,1.79 -9.98,-0.32 -14.85,-10.54 10.02,-47.34 10.88,-61.47 0.48,-7.78 1.42,-14.2 4.96,-21.51 1.4,-2.94 7.65,-9.31 12.2,-3.06 0.18,-15.76 0.84,-36.04 11.35,-49.01 6.29,-7.75 18.48,-11.04 18.97,-22.1 0.43,-9.18 3.65,-23.64 -8.46,-34.75 -36.47,-33.34 -150.67,-60.49 -175.41,-77.45 -9.57,-6.55 -16.8,-15 -22.62,-24.41 -5.06,-8.22 -7.73,-18.12 -9.31,-28.6 64.84,-85.81 167.75,-141.29 283.59,-141.29 16.07,0 31.89,1.06 47.44,3.13 -0.16,0.02 -0.31,0.04 -0.43,0.06 50.41,6.66 97.5,23.83 138.95,49.36 0,0 0.04,-0.03 0.05,-0.03 42.76,26.3 79.4,61.5 107.64,102.88 -6.25,13.72 -13.07,25 -19.39,31.33"
         style="fill:#b8d77e;fill-opacity:1;fill-rule:nonzero;stroke:none"
         id="path344" />
      <path
         d="m 7070.67,7786.9 c -198.82,0 -360,-161.17 -360,-360.01 0,-198.81 161.18,-359.99 360,-359.99 194.3,0 352.66,153.92 359.75,346.5 -0.03,0 -0.05,-0.01 -0.09,-0.01 0.17,4.49 0.34,8.98 0.34,13.5 0,0.19 0,0.37 0,0.55 -0.03,22.59 -2.24,44.65 -6.26,66.09 -1.61,10.67 -5.77,23.79 -8,33.74 0.04,-0.01 0.06,-0.03 0.1,-0.04 -43.45,150.01 -181.86,259.67 -345.84,259.67"
         style="fill:#166534;fill-opacity:1;fill-rule:nonzero;stroke:none"
         id="path346" />
      <path
         d="m 7064.78,7067.47 c 114.2,-1.99 216.87,49.46 284.24,131.25 -0.67,4.84 -1.37,9.67 -1.98,14.5 -2.25,17.43 -21.71,39.28 -42.77,47.91 -20.11,8.23 -64.76,14.03 -76.53,18.45 -19.01,7.15 -83.35,37.85 -90.26,49.52 -7.32,12.44 -11.29,29 -10.17,44.11 4.69,0.55 9.75,1.98 15.34,4.74 5.35,-16.98 44.58,-21.06 54.26,-19.75 11.52,1.54 23.44,5.69 31.98,13.6 5.45,5.04 17.49,26.35 4.87,36.75 22.04,0.19 30.76,41.68 6.26,43.46 26.91,8.24 14.39,53.01 -0.02,48.63 0,0 7.21,32.14 -23.26,24.12 11.41,37.18 -51.07,211.83 -109.68,167.03 -69.6,49.1 -172.13,-35.13 -180.68,-107.58 -1.47,-12.35 -4.37,-33.66 0.33,-45.25 -9.54,2.13 -17.25,-1.84 -22.51,-9.44 -3.14,-4.52 -5.86,-12.17 2.2,-19.47 -28.14,-8.1 -24,-50.74 6.27,-45.8 -26.71,-4.35 -38.02,-64.17 -0.51,-65.38 3.86,-19.93 17.38,-31.53 39.99,-25.78 12.85,-10.78 33.37,-7.68 48.11,-2.4 0.5,0.18 1.01,0.36 1.54,0.54 -0.51,-13.67 -3.17,-28.95 -7.33,-37.21 -6.2,-12.25 -24.05,-21.52 -35.5,-27 -20.22,-9.61 -38.05,-17.38 -59.34,-23.92 -20.32,-6.25 -37.3,-8.38 -56.3,-12.54 -24.7,-5.36 -36.46,-16.17 -47.37,-37.93 -3.12,-6.23 -6.23,-16.45 -8.61,-26.76 64.59,-82.59 164.45,-136.44 277.43,-138.4"
         style="fill:#b8d77e;fill-opacity:1;fill-rule:nonzero;stroke:none"
         id="path348" />
      <path
         d="m 7746.26,5042.34 c 132.19,53.28 225.53,182.76 225.53,334.04 0,198.82 -161.18,360 -360,360 -198.83,0 -360,-161.18 -360,-360 0,-198.82 161.17,-360 360,-360 13.06,0 25.96,0.7 38.66,2.05 -0.02,0.02 -0.02,0.03 -0.03,0.04 33.56,3.58 65.69,11.82 95.83,23.97 0.01,-0.04 0.01,-0.07 0.01,-0.1"
         style="fill:#166534;fill-opacity:1;fill-rule:nonzero;stroke:none"
         id="path350" />
      <path
         d="m 7898.84,5211.62 c -7.11,17.98 -35.04,28.24 -53.67,33.73 -23.53,6.93 -50.3,16.56 -72.25,28.21 -14.41,7.64 -92.19,41.96 -97.89,54.21 -4.29,9.25 -4.74,27.44 -1.13,39.08 2.83,9.15 9.96,15.92 12.48,25.16 1.72,6.34 8,26.5 8,26.5 0,0 4.38,-0.51 7.29,8.5 1.63,5.04 3.05,10.06 5.91,14.59 5.42,8.54 10.33,14.75 12.02,25.17 1.1,6.59 2.74,21.94 -4.32,26.61 -4.35,2.87 -7.74,1.54 -11.09,-0.79 0.78,2.86 3.48,19.19 4.92,30.84 0.65,5.26 0.18,10.71 0.01,16.01 -0.1,3.27 1.38,14.21 -0.47,16.69 3.03,-4.07 7.24,-7.3 10.06,-11.86 -1.33,14.93 -7.03,26.47 -17.64,37.31 0.39,1.56 2.81,0.6 2.89,0.92 -1.15,1.82 -4.04,2.93 -4.69,4.98 0.33,1.36 3.85,4.15 4.72,5.39 -0.64,0.55 -4.76,-2.02 -5.81,-1.88 2.44,3.81 4.71,8.76 7.04,12.33 -11.74,-17.85 -22.2,-2.9 -29.26,9.42 -3.56,6.22 -8.05,10.28 -12.71,15.54 -1.67,1.88 -3.18,3.98 -4.88,5.88 -0.1,-2.61 0.63,-5.09 0.76,-7.64 -3.02,3.44 -8.12,3.91 -11.67,6.53 1.44,-2.57 4.02,-4.13 5.71,-6.51 -4.07,0.64 -8.3,0.2 -12.28,1.41 -9.9,3.02 -22.26,7.4 -32.67,7.87 -8.24,0.37 -16.45,0.02 -24.79,0.75 2.1,-1.08 5.36,-2.92 7.35,-3.91 0.08,0.07 -4.03,0.06 -7.08,-2.08 1.55,0.07 3.89,-0.49 3.05,-1.33 -2.95,-2.94 -14.93,-5.74 -18.06,-5.8 -2.87,-0.05 -5.55,0.81 -8.42,0.35 -3.99,-0.66 -7.77,-3.5 -11.42,-5.17 2.38,0.13 4.76,0.84 7.12,0.29 -3.81,-3.1 -10.37,-4.92 -15.23,-5.32 1.99,-0.07 4.68,-0.32 6.88,-0.62 -12.95,-4.98 -27.65,-3.65 -39.73,-11.42 4.44,0 9.49,0.64 13.54,-0.9 -8.56,-1.81 -17.1,-11.03 -21.99,-18.03 2.04,1.34 4.22,2.35 6.57,2.75 -0.53,-2.67 -5.99,-4.86 -6.03,-6.81 -0.02,-0.71 3.95,0.35 2.91,-0.94 -1.69,-2.05 -3.35,-3.96 -4.66,-6.29 0.27,0.5 4.69,-0.09 5.52,-0.19 -3.99,-8.98 -4.5,-18.11 -3.78,-27.92 1.3,2.08 2.53,4.58 3.81,6.69 -0.52,-3.87 -1.02,-19.77 1.09,-23.24 0.18,0.99 0.55,1.99 1.28,2.69 0.19,-0.78 0.15,-5.8 0.86,-8.34 0.17,1.31 0.73,1.25 1.07,1.65 1.29,-6.98 6.78,-23.29 8.3,-28.72 1.02,-3.54 1.66,-5.93 1.93,-7.99 -16.26,12.65 -15.22,-14.56 -14.43,-20.47 1.72,-12.81 6.56,-24.84 13.1,-35.94 2.23,-3.8 5.48,-9.74 7.78,-13.38 3.1,-4.89 5.94,-2.32 5.94,-2.32 0,0 4.36,-13.38 5.04,-16.97 1.5,-7.9 11.05,-22.09 12.29,-30.04 2.59,-16.66 3.86,-23.69 -3.02,-39.27 -6.24,-14.13 -92.75,-52.6 -112.67,-61.59 -23.71,-10.7 -66.06,-13.08 -86.7,-28.22 -18.19,-13.34 -27.54,-41.91 -27.09,-70.09 65.26,-91.54 172.24,-151.3 293.24,-151.3 13.06,0 25.96,0.7 38.66,2.05 -0.02,0.02 -0.02,0.03 -0.03,0.04 33.56,3.58 65.69,11.82 95.83,23.97 0.01,-0.04 0.01,-0.07 0.01,-0.1 65.6,26.44 121.59,71.67 161.39,128.99 -0.37,11.68 -2.9,25.34 -8.81,40.29"
         style="fill:#b8d77e;fill-opacity:1;fill-rule:nonzero;stroke:none"
         id="path352" />
      <path
         d="m 7289.57,3767.58 c 198.81,0 360,161.19 360,360 0,198.82 -161.19,360 -360,360 -198.82,0 -360,-161.18 -360,-360 0,-134.19 73.43,-251.25 182.32,-313.16 0,0.04 0,0.07 0,0.12 40.44,-23.01 85.75,-38.38 134.01,-44.22 -0.01,-0.04 -0.04,-0.07 -0.05,-0.1 14.33,-1.74 28.93,-2.64 43.72,-2.64"
         style="fill:#166534;fill-opacity:1;fill-rule:nonzero;stroke:none"
         id="path354" />
      <path
         d="m 7562.25,3892.7 c -0.94,9.97 -2.97,19.92 -6.22,29.22 -7.3,20.8 -20.38,38.38 -39.04,45.63 -12.08,4.7 -33.32,8.34 -50.26,11.37 15.97,7.73 35.92,21.79 35.77,36.69 -91.18,-13.94 -65.11,106.23 -68.98,162.89 -5.96,87.13 -28.95,156.07 -56.23,181.05 -13.72,12.55 -36.8,28.31 -54.83,14.01 -46.83,31.82 -92.9,7.78 -123.35,-31.94 -34.86,-45.42 -32.71,-97.23 -34.66,-151.54 -1.46,-40.37 17.67,-162.73 -41.4,-173.61 -19.31,-3.53 -35.75,4.83 -49.21,16.15 1.52,-37.24 26.98,-47.05 49.19,-53.59 -15.38,-4.32 -29.16,-6.56 -44.24,-10.12 -38.92,-9.18 -59.78,-45.09 -58.67,-79.98 26.22,-29.57 57.18,-54.84 91.77,-74.51 0,0.04 0,0.07 0,0.12 40.44,-23.01 85.75,-38.38 134.01,-44.22 -0.01,-0.04 -0.04,-0.07 -0.05,-0.1 14.33,-1.74 28.93,-2.64 43.72,-2.64 109.03,0 206.67,48.56 272.68,125.12"
         style="fill:#b8d77e;fill-opacity:1;fill-rule:nonzero;stroke:none"
         id="path356" />
      <path
         d="m 2211.28,3255.24 c -198.82,0 -360,-161.17 -360,-360.02 0,-198.81 161.18,-359.98 360,-359.98 194.29,0 352.67,153.92 359.76,346.5 -0.04,0 -0.06,-0.01 -0.1,-0.01 0.18,4.49 0.33,8.97 0.33,13.49 0,0.2 0,0.37 0,0.55 -0.02,22.6 -2.22,44.66 -6.25,66.09 -1.62,10.68 -5.78,23.79 -8,33.75 0.04,-0.02 0.06,-0.04 0.09,-0.05 -43.43,150.01 -181.85,259.68 -345.83,259.68"
         style="fill:#166534;fill-opacity:1;fill-rule:nonzero;stroke:none"
         id="path358" />
      <path
         d="m 2205.39,2535.81 c 114.2,-1.99 216.86,49.45 284.24,131.25 -0.66,4.83 -1.36,9.67 -1.99,14.49 -2.24,17.44 -21.7,39.28 -42.75,47.91 -20.12,8.24 -64.77,14.03 -76.54,18.46 -19.01,7.15 -83.35,37.85 -90.26,49.52 -7.32,12.43 -11.29,28.99 -10.17,44.1 4.69,0.56 9.75,1.98 15.34,4.74 5.35,-16.98 44.58,-21.06 54.26,-19.75 11.52,1.54 23.44,5.69 31.98,13.61 5.45,5.03 17.49,26.35 4.88,36.74 22.03,0.2 30.74,41.68 6.25,43.46 26.91,8.24 14.39,53.01 -0.02,48.63 0,0 7.21,32.14 -23.26,24.12 11.41,37.18 -51.07,211.83 -109.68,167.03 -69.6,49.11 -172.13,-35.13 -180.68,-107.57 -1.47,-12.35 -4.37,-33.67 0.33,-45.26 -9.54,2.13 -17.25,-1.83 -22.51,-9.43 -3.14,-4.53 -5.85,-12.17 2.2,-19.47 -28.14,-8.11 -24,-50.75 6.27,-45.81 -26.71,-4.35 -38.02,-64.16 -0.51,-65.37 3.86,-19.94 17.38,-31.54 39.99,-25.79 12.86,-10.77 33.37,-7.67 48.11,-2.39 0.5,0.18 1.01,0.35 1.54,0.54 -0.51,-13.67 -3.17,-28.96 -7.33,-37.22 -6.2,-12.25 -24.05,-21.52 -35.5,-26.99 -20.21,-9.61 -38.05,-17.38 -59.34,-23.93 -20.32,-6.25 -37.3,-8.38 -56.3,-12.54 -24.7,-5.36 -36.46,-16.17 -47.37,-37.93 -3.12,-6.23 -6.23,-16.44 -8.61,-26.75 64.59,-82.6 164.45,-136.45 277.43,-138.4"
         style="fill:#b8d77e;fill-opacity:1;fill-rule:nonzero;stroke:none"
         id="path360" />
      <path
         d="m 1501.88,5061.43 c -7.21,77.46 -85.74,122.57 -175.83,115.48 -90.04,-7.07 -155.15,-80.64 -207.7,-148.6 -0.04,0 133.67,-112.31 224.01,-109.3 86.34,2.93 158.17,45.62 159.52,142.42"
         style="fill:#b8d77e;fill-opacity:1;fill-rule:nonzero;stroke:none"
         id="path362" />
      <path
         d="m 1761.75,5010.36 c 2.9,8.41 -91.89,48.36 -193.79,54.7 -52.07,3.77 -88,1.15 -123.88,-3.36 -35.91,-4.42 -72.01,-12.45 -122.98,-31.29 51.78,16.01 87.89,20.44 123.3,20.97 35.45,0.29 70.3,-1.66 120.37,-10.25 97.19,-15.74 193.86,-40.71 196.98,-30.77"
         style="fill:#617831;fill-opacity:1;fill-rule:evenodd;stroke:none"
         id="path364" />
    </g>
  </g>
</svg>
