<?xml version="1.0" encoding="UTF-8"?>
<svg width="1200pt" height="1200pt" version="1.1" viewBox="0 0 1200 1200" xmlns="http://www.w3.org/2000/svg">
 <g fill="#166534">
  <path d="m150.43 555.05 51.191 21.203c15.324-19.414 32.855-36.961 52.262-52.297l-21.191-51.168 160.27-66.371 21.191 51.168c24.562-2.8906 49.367-2.8672 73.945 0.011719l21.203-51.191 160.25 66.383-21.203 51.191c19.414 15.324 36.973 32.855 52.285 52.262l51.18-21.203 66.383 160.27-51.18 21.191c2.8906 24.59 2.8789 49.367-0.011719 73.934l51.203 21.227-25.754 62.16c19.859 3.5898 39.277 9.6602 57.77 18.012 15.469 7.0781 32.785 10.934 49.801 10.934 17.473 0 34.453-3.8984 50.258-10.992 24.852-11.293 51.504-18.406 78.648-20.832l-0.003906-287.41h135.46l-203.17-178.2-0.003906-229.46h-158.04v90.84l-203.17-178.19-564.39 495.01h94.738z" />
  <path d="m149.93 1058.3c27.059 0 53.074 6.2148 76.117 17.027 22.559 10.129 47.797 16.152 73.906 16.152 26.305 0 51.539-6.0117 74.004-16.152 22.945-10.812 48.961-17.027 76.105-17.027 27.059 0 53.074 6.2148 76.117 17.027 22.477 10.129 47.508 16.152 73.812 16.152 26.293 0 51.457-6.0117 74.102-16.152 23.051-10.812 49.055-17.027 75.926-17.027 27.156 0 53.172 6.2148 76.211 17.027 22.379 10.129 47.797 16.152 73.801 16.152 26.305 0 51.348-6.0117 74.113-16.152 22.957-10.812 48.961-17.027 75.926-17.027 27.156 0 53.16 6.2148 76.117 17.027 22.477 10.129 47.797 16.152 73.812 16.152v-110.91c-26.016 0-51.336-5.9023-73.812-16.164-22.934-10.402-48.961-16.633-76.117-16.633-26.965 0-52.969 6.2148-75.926 16.633-22.754 10.234-47.809 16.164-74.113 16.164-26.004 0-51.422-5.9023-73.801-16.164-23.039-10.402-49.055-16.633-76.211-16.633-26.867 0-52.871 6.2148-75.926 16.633-22.68 10.234-47.809 16.164-74.102 16.164-26.281 0-51.336-5.9023-73.812-16.164-23.039-10.402-49.055-16.633-76.117-16.633-27.156 0-53.16 6.2148-76.105 16.633-22.465 10.234-47.723 16.164-74.004 16.164-26.102 0-51.348-5.9023-73.906-16.164-23.039-10.402-49.055-16.633-76.117-16.633-26.965 0-52.969 6.2148-76.008 16.633-22.559 10.234-47.629 16.164-73.922 16.164v110.91c26.293 0 51.348-6.0117 73.922-16.152 23.039-10.812 49.043-17.027 76.008-17.027z" />
  <path d="m720.71 630.57-41.566 17.172c-24.336-44.23-60.562-78.973-102.55-102.1l17.617-41.555-53.746-22.129-17.172 41.555c-46.031-13.344-96.07-14.062-144.55 0l-17.16-41.555-53.305 22.129 17.172 41.555c-44.23 24.336-78.973 60.109-102.1 102.1l-41.555-17.172-22.141 53.305 41.555 17.172c-13.344 46.02-14.062 96.059 0 144.55l-41.555 17.172 11.746 28.008c16.547 1.4883 32.891 5.0742 48.793 9.9375l3.1562-1.3555 1.3555 2.7109c8.4961 2.7734 17.137 5.7852 25.297 9.4922 15.672 7.1055 32.93 11.293 50.148 11.293h2.2578c-12.602-12.551-23.699-27.047-32.977-42.91l128.29-52.848-32.52 78.602c22.055-8.293 45.145-13.766 68.664-15.359l17.172-41.113 17.16 41.566c23.652 1.8242 47.41 7.2109 69.562 15.805l-32.977-79.5 127.85 52.848c-9.0859 15.48-20.102 30.047-32.988 42.91h0.45703c17.398 0 34.344-4.1875 50.148-11.293 8.9531-4.0664 18.203-7.4531 27.551-10.391l1.3555-2.2578 2.2578 1.3438c16.211-4.8477 32.797-8.1367 49.691-9.4805l11.746-28.008-41.555-17.172c13.32-46.043 14.062-96.086 0-144.55l41.555-17.172zm-473.43 196.06c-9.3359-35.711-8.9023-72.109 0-106.16l128.29 52.848zm22.137-159.91c17.797-30.406 43.152-56.375 74.988-75l53.305 128.3zm181.6 31.164-52.859-128.3c17.844-4.668 35.902-6.8398 53.762-6.7695 17.844 0.046875 35.363 2.3164 52.402 6.7695zm106.61-106.16c30.395 17.797 56.363 43.141 75 75l-127.85 53.305zm97.125 234.91-128.29-53.316 128.3-52.848c9.3359 35.699 8.8789 72.082-0.015624 106.16z" />
 </g>
</svg>
